<svg xmlns="http://www.w3.org/2000/svg" width="1400" height="1400" viewBox="0 0 1400 1400">
<rect width="100%" height="100%" fill="#FFFFFF"/>
<g fill="#D2D2CE" style="mix-blend-mode:multiply"><circle cx="570.10" cy="320.70" r="10.89"/><circle cx="653.63" cy="576.73" r="7.77"/><circle cx="597.63" cy="405.10" r="9.86"/><circle cx="848.29" cy="592.35" r="8.45"/><circle cx="1055.89" cy="444.33" r="11.39"/><circle cx="874.94" cy="573.35" r="8.83"/><circle cx="281.47" cy="706.68" r="11.03"/><circle cx="413.21" cy="705.19" r="9.49"/><circle cx="552.90" cy="703.61" r="7.86"/><circle cx="795.50" cy="778.37" r="7.75"/><circle cx="978.01" cy="916.36" r="10.38"/><circle cx="998.76" cy="932.05" r="10.67"/><circle cx="572.19" cy="1107.88" r="11.15"/><circle cx="625.09" cy="932.33" r="9.00"/><circle cx="647.66" cy="857.44" r="8.08"/><circle cx="608.57" cy="942.34" r="9.24"/><circle cx="637.13" cy="862.46" r="8.27"/><circle cx="544.02" cy="1122.91" r="11.42"/><circle cx="992.40" cy="904.37" r="10.39"/><circle cx="793.59" cy="769.31" r="7.55"/><circle cx="973.87" cy="891.78" r="10.13"/><circle cx="399.40" cy="690.39" r="9.71"/><circle cx="258.43" cy="684.84" r="11.30"/><circle cx="544.56" cy="696.10" r="8.06"/><circle cx="1023.60" cy="441.23" r="11.09"/><circle cx="859.80" cy="571.02" r="8.61"/><circle cx="833.80" cy="591.62" r="8.22"/><circle cx="608.01" cy="382.92" r="10.11"/><circle cx="658.28" cy="568.37" r="7.95"/><circle cx="584.14" cy="294.83" r="11.14"/><circle cx="558.42" cy="346.99" r="10.61"/><circle cx="589.22" cy="427.33" r="9.58"/><circle cx="649.74" cy="585.23" r="7.56"/><circle cx="1088.61" cy="450.10" r="11.65"/><circle cx="863.12" cy="594.22" r="8.66"/><circle cx="890.10" cy="576.98" r="9.01"/><circle cx="561.48" cy="710.26" r="7.63"/><circle cx="427.82" cy="718.56" r="9.24"/><circle cx="305.39" cy="726.16" r="10.71"/><circle cx="980.15" cy="941.65" r="10.59"/><circle cx="796.73" cy="787.77" r="7.93"/><circle cx="1003.03" cy="960.85" r="10.92"/><circle cx="640.31" cy="921.52" r="8.72"/><circle cx="657.53" cy="851.76" r="7.86"/><circle cx="598.42" cy="1091.24" r="10.83"/><circle cx="590.87" cy="951.26" r="9.45"/><circle cx="626.05" cy="866.63" r="8.44"/><circle cx="514.13" cy="1135.82" r="11.67"/><circle cx="968.05" cy="868.23" r="9.84"/><circle cx="791.10" cy="760.70" r="7.33"/><circle cx="984.33" cy="878.12" r="10.07"/><circle cx="236.82" cy="660.70" r="11.55"/><circle cx="536.66" cy="687.76" r="8.24"/><circle cx="386.74" cy="674.23" r="9.89"/><circle cx="992.22" cy="440.49" r="10.74"/><circle cx="819.85" cy="591.90" r="7.95"/><circle cx="844.94" cy="569.86" r="8.36"/><circle cx="620.43" cy="361.20" r="10.33"/><circle cx="663.70" cy="560.32" r="8.10"/><circle cx="600.58" cy="269.89" r="11.35"/><circle cx="582.62" cy="449.23" r="9.26"/><circle cx="548.96" cy="373.19" r="10.27"/><circle cx="646.57" cy="593.72" r="7.32"/><circle cx="878.07" cy="597.37" r="8.84"/><circle cx="905.04" cy="582.00" r="9.18"/><circle cx="1121.23" cy="458.78" r="11.88"/><circle cx="329.67" cy="743.29" r="10.34"/><circle cx="442.86" cy="730.48" r="8.94"/><circle cx="570.13" cy="716.07" r="7.37"/><circle cx="797.16" cy="797.40" r="8.08"/><circle cx="980.02" cy="967.31" r="10.78"/><circle cx="1004.88" cy="990.41" r="11.15"/><circle cx="622.53" cy="1073.51" r="10.46"/><circle cx="666.68" cy="845.61" r="7.59"/><circle cx="654.16" cy="910.23" r="8.41"/><circle cx="482.85" cy="1146.15" r="11.88"/><circle cx="572.13" cy="958.79" r="9.65"/><circle cx="614.54" cy="869.79" r="8.59"/><circle cx="960.92" cy="845.94" r="9.50"/><circle cx="974.96" cy="853.53" r="9.69"/><circle cx="788.19" cy="752.62" r="7.06"/><circle cx="375.56" cy="656.84" r="10.06"/><circle cx="529.38" cy="678.62" r="8.40"/><circle cx="217.17" cy="634.41" r="11.77"/><circle cx="830.56" cy="569.70" r="8.06"/><circle cx="962.15" cy="441.74" r="10.34"/><circle cx="806.59" cy="593.00" r="7.64"/><circle cx="634.89" cy="340.36" r="10.53"/><circle cx="669.90" cy="552.74" r="8.24"/><circle cx="619.41" cy="246.39" r="11.55"/><circle cx="541.51" cy="398.86" r="9.89"/><circle cx="644.05" cy="602.04" r="7.05"/><circle cx="577.64" cy="470.44" r="8.89"/><circle cx="919.47" cy="588.46" r="9.32"/><circle cx="892.90" cy="601.87" r="9.01"/><circle cx="1153.20" cy="470.51" r="12.09"/><circle cx="353.77" cy="758.16" r="9.92"/><circle cx="578.66" cy="721.09" r="7.07"/><circle cx="457.99" cy="740.98" r="8.60"/><circle cx="796.71" cy="807.11" r="8.22"/><circle cx="977.42" cy="992.95" r="10.95"/><circle cx="1004.03" cy="1020.31" r="11.35"/><circle cx="666.64" cy="898.77" r="8.04"/><circle cx="644.48" cy="1055.24" r="10.03"/><circle cx="675.07" cy="839.19" r="7.29"/><circle cx="552.58" cy="964.66" r="9.83"/><circle cx="602.75" cy="871.81" r="8.72"/><circle cx="450.56" cy="1153.48" r="12.07"/><circle cx="964.74" cy="830.78" r="9.26"/><circle cx="952.86" cy="825.12" r="9.10"/><circle cx="784.99" cy="745.12" r="6.76"/><circle cx="522.90" cy="668.76" r="8.54"/><circle cx="366.17" cy="638.40" r="10.20"/><circle cx="199.99" cy="606.21" r="11.97"/><circle cx="933.74" cy="444.53" r="9.87"/><circle cx="816.85" cy="570.33" r="7.71"/><circle cx="794.17" cy="594.74" r="7.29"/><circle cx="676.82" cy="545.80" r="8.37"/><circle cx="640.50" cy="224.84" r="11.72"/><circle cx="651.36" cy="320.82" r="10.72"/><circle cx="535.80" cy="423.57" r="9.43"/><circle cx="642.09" cy="610.06" r="6.72"/><circle cx="574.05" cy="490.68" r="8.46"/><circle cx="907.36" cy="607.78" r="9.16"/><circle cx="933.14" cy="596.37" r="9.45"/><circle cx="1183.94" cy="485.36" r="12.28"/><circle cx="377.22" cy="770.96" r="9.43"/><circle cx="586.91" cy="725.38" r="6.72"/><circle cx="472.86" cy="750.17" r="8.19"/><circle cx="795.32" cy="816.78" r="8.35"/><circle cx="972.18" cy="1018.14" r="11.10"/><circle cx="1000.26" cy="1050.10" r="11.54"/><circle cx="677.76" cy="887.44" r="7.62"/><circle cx="682.70" cy="832.71" r="6.93"/><circle cx="664.27" cy="1036.97" r="9.52"/><circle cx="590.85" cy="872.56" r="8.84"/><circle cx="417.72" cy="1157.49" r="12.25"/><circle cx="532.47" cy="968.65" r="9.99"/><circle cx="954.11" cy="809.94" r="8.76"/><circle cx="944.30" cy="805.86" r="8.63"/><circle cx="781.64" cy="738.23" r="6.40"/><circle cx="185.74" cy="576.41" r="12.15"/><circle cx="358.84" cy="619.14" r="10.34"/><circle cx="517.38" cy="658.28" r="8.68"/><circle cx="907.24" cy="448.42" r="9.33"/><circle cx="803.96" cy="571.53" r="7.29"/><circle cx="782.67" cy="596.91" r="6.88"/><circle cx="669.72" cy="302.99" r="10.89"/><circle cx="663.68" cy="205.72" r="11.88"/><circle cx="684.42" cy="539.64" r="8.49"/><circle cx="571.57" cy="509.67" r="7.96"/><circle cx="531.49" cy="446.97" r="8.90"/><circle cx="640.59" cy="617.66" r="6.34"/><circle cx="921.19" cy="615.11" r="9.31"/><circle cx="945.76" cy="605.69" r="9.57"/><circle cx="1212.89" cy="503.30" r="12.46"/><circle cx="594.75" cy="729.04" r="6.31"/><circle cx="487.16" cy="758.20" r="7.72"/><circle cx="399.58" cy="781.94" r="8.86"/><circle cx="792.93" cy="826.22" r="8.47"/><circle cx="964.26" cy="1042.45" r="11.24"/><circle cx="993.44" cy="1079.28" r="11.72"/><circle cx="682.02" cy="1019.19" r="8.93"/><circle cx="689.61" cy="826.37" r="6.50"/><circle cx="687.63" cy="876.52" r="7.14"/><circle cx="579.03" cy="871.98" r="8.95"/><circle cx="384.81" cy="1157.89" r="12.42"/><circle cx="512.07" cy="970.55" r="10.15"/><circle cx="935.65" cy="788.21" r="8.08"/><circle cx="778.30" cy="731.96" r="5.98"/><circle cx="943.52" cy="791.03" r="8.18"/><circle cx="174.81" cy="545.40" r="12.33"/><circle cx="353.80" cy="599.33" r="10.47"/><circle cx="512.99" cy="647.30" r="8.81"/><circle cx="791.99" cy="573.06" r="6.81"/><circle cx="772.15" cy="599.30" r="6.40"/><circle cx="882.84" cy="452.90" r="8.70"/><circle cx="689.80" cy="287.27" r="11.06"/><circle cx="692.60" cy="534.41" r="8.60"/><circle cx="688.69" cy="189.46" r="12.03"/><circle cx="639.42" cy="624.74" r="5.90"/><circle cx="528.21" cy="468.77" r="8.28"/><circle cx="569.89" cy="527.23" r="7.39"/><circle cx="934.13" cy="623.82" r="9.45"/><circle cx="957.09" cy="616.33" r="9.69"/><circle cx="1239.47" cy="524.20" r="12.64"/><circle cx="602.05" cy="732.16" r="5.84"/><circle cx="500.62" cy="765.25" r="7.16"/><circle cx="420.48" cy="791.40" r="8.21"/><circle cx="789.54" cy="835.30" r="8.59"/><circle cx="953.64" cy="1065.45" r="11.38"/><circle cx="983.52" cy="1107.37" r="11.89"/><circle cx="696.36" cy="866.26" r="6.58"/><circle cx="697.91" cy="1002.38" r="8.25"/><circle cx="695.84" cy="820.35" r="6.02"/><circle cx="491.69" cy="970.24" r="10.30"/><circle cx="567.48" cy="870.00" r="9.07"/><circle cx="352.36" cy="1154.52" r="12.58"/><circle cx="933.37" cy="773.98" r="7.52"/><circle cx="927.31" cy="772.16" r="7.45"/><circle cx="775.10" cy="726.29" r="5.51"/><circle cx="509.84" cy="635.98" r="8.94"/><circle cx="351.22" cy="579.27" r="10.59"/><circle cx="167.55" cy="513.61" r="12.51"/><circle cx="860.60" cy="457.48" r="7.97"/><circle cx="781.00" cy="574.66" r="6.26"/><circle cx="762.63" cy="601.71" r="5.86"/><circle cx="711.34" cy="274.01" r="11.23"/><circle cx="715.18" cy="176.44" r="12.19"/><circle cx="701.26" cy="530.23" r="8.71"/><circle cx="525.54" cy="488.76" r="7.57"/><circle cx="638.44" cy="631.24" r="5.39"/><circle cx="568.70" cy="543.23" r="6.74"/><circle cx="945.94" cy="633.85" r="9.60"/><circle cx="966.90" cy="628.16" r="9.81"/><circle cx="1263.15" cy="547.86" r="12.81"/><circle cx="513.01" cy="771.57" r="6.53"/><circle cx="608.70" cy="734.89" r="5.31"/><circle cx="439.61" cy="799.70" r="7.46"/><circle cx="785.16" cy="843.84" r="8.71"/><circle cx="940.40" cy="1086.72" r="11.53"/><circle cx="970.53" cy="1133.85" r="12.07"/><circle cx="701.51" cy="814.83" r="5.46"/><circle cx="712.19" cy="986.96" r="7.48"/><circle cx="704.12" cy="856.87" r="5.95"/><circle cx="556.40" cy="866.61" r="9.18"/><circle cx="320.92" cy="1147.29" r="12.75"/><circle cx="471.66" cy="967.61" r="10.47"/><circle cx="772.18" cy="721.17" r="4.97"/><circle cx="919.68" cy="757.59" r="6.73"/><circle cx="924.06" cy="758.67" r="6.78"/><circle cx="351.23" cy="559.28" r="10.73"/><circle cx="508.03" cy="624.47" r="9.07"/><circle cx="164.22" cy="481.53" r="12.70"/><circle cx="840.53" cy="461.68" r="7.16"/><circle cx="771.01" cy="576.09" r="5.63"/><circle cx="754.09" cy="603.94" r="5.26"/><circle cx="734.07" cy="263.51" r="11.41"/><circle cx="710.27" cy="527.20" r="8.84"/><circle cx="742.78" cy="166.99" r="12.35"/><circle cx="523.05" cy="506.81" r="6.78"/><circle cx="637.51" cy="637.12" r="4.83"/><circle cx="567.66" cy="557.59" r="6.02"/><circle cx="956.38" cy="645.08" r="9.75"/><circle cx="974.99" cy="641.03" r="9.94"/><circle cx="1283.46" cy="573.99" r="13.00"/><circle cx="614.66" cy="737.34" r="4.73"/><circle cx="456.75" cy="807.23" r="6.64"/><circle cx="524.13" cy="777.41" r="5.82"/><circle cx="779.82" cy="851.70" r="8.85"/><circle cx="924.69" cy="1105.86" r="11.68"/><circle cx="954.55" cy="1158.25" r="12.27"/><circle cx="725.20" cy="973.27" r="6.63"/><circle cx="706.71" cy="809.94" r="4.84"/><circle cx="711.08" cy="848.53" r="5.27"/><circle cx="545.97" cy="861.84" r="9.31"/><circle cx="452.32" cy="962.62" r="10.65"/><circle cx="291.03" cy="1136.21" r="12.94"/><circle cx="915.94" cy="744.90" r="5.97"/><circle cx="913.11" cy="744.35" r="5.94"/><circle cx="769.65" cy="716.56" r="4.38"/><circle cx="507.65" cy="612.96" r="9.23"/><circle cx="353.88" cy="539.68" r="10.88"/><circle cx="164.98" cy="449.67" r="12.90"/><circle cx="822.53" cy="465.04" r="6.28"/><circle cx="761.99" cy="577.09" r="4.95"/><circle cx="746.47" cy="605.80" r="4.61"/><circle cx="757.65" cy="256.03" r="11.61"/><circle cx="719.51" cy="525.40" r="8.97"/><circle cx="771.06" cy="161.35" r="12.54"/><circle cx="636.49" cy="642.34" r="4.22"/><circle cx="520.31" cy="522.87" r="5.92"/><circle cx="566.45" cy="570.32" r="5.24"/><circle cx="965.23" cy="657.38" r="9.93"/><circle cx="981.18" cy="654.75" r="10.09"/><circle cx="1299.97" cy="602.20" r="13.22"/><circle cx="619.86" cy="739.67" r="4.10"/><circle cx="533.86" cy="783.07" r="5.06"/><circle cx="471.76" cy="814.41" r="5.76"/><circle cx="773.59" cy="858.72" r="9.00"/><circle cx="906.72" cy="1122.50" r="11.86"/><circle cx="935.79" cy="1180.11" r="12.49"/><circle cx="717.47" cy="841.37" r="4.54"/><circle cx="737.29" cy="961.60" r="5.73"/><circle cx="711.61" cy="805.81" r="4.19"/><circle cx="536.39" cy="855.74" r="9.46"/><circle cx="263.23" cy="1121.37" r="13.16"/><circle cx="434.01" cy="955.30" r="10.85"/><circle cx="909.28" cy="732.41" r="5.12"/><circle cx="907.90" cy="732.22" r="5.11"/><circle cx="767.61" cy="712.35" r="3.76"/><circle cx="359.18" cy="520.83" r="11.05"/><circle cx="508.73" cy="601.63" r="9.40"/><circle cx="169.92" cy="418.57" r="13.14"/><circle cx="806.42" cy="467.13" r="5.37"/><circle cx="753.86" cy="577.44" r="4.24"/><circle cx="739.71" cy="607.14" r="3.94"/><circle cx="781.71" cy="251.78" r="11.84"/><circle cx="728.81" cy="524.88" r="9.13"/><circle cx="799.56" cy="159.67" r="12.75"/><circle cx="564.78" cy="581.46" r="4.46"/><circle cx="516.91" cy="536.98" r="5.05"/><circle cx="635.24" cy="646.93" r="3.59"/><circle cx="972.32" cy="670.56" r="10.13"/><circle cx="985.34" cy="669.09" r="10.26"/><circle cx="1312.34" cy="632.08" r="13.47"/><circle cx="624.31" cy="742.01" r="3.47"/><circle cx="484.58" cy="821.65" r="4.88"/><circle cx="542.14" cy="788.84" r="4.30"/><circle cx="766.55" cy="864.78" r="9.18"/><circle cx="886.75" cy="1136.33" r="12.08"/><circle cx="914.50" cy="1199.02" r="12.75"/><circle cx="723.51" cy="835.47" r="3.83"/><circle cx="748.87" cy="952.13" r="4.85"/><circle cx="716.35" cy="802.52" r="3.55"/><circle cx="527.83" cy="848.40" r="9.64"/><circle cx="238.00" cy="1102.97" r="13.42"/><circle cx="417.04" cy="945.71" r="11.09"/><circle cx="904.31" cy="720.93" r="4.32"/><circle cx="766.14" cy="708.47" r="3.18"/><circle cx="904.31" cy="720.93" r="4.32"/><circle cx="511.30" cy="590.67" r="9.61"/><circle cx="367.07" cy="503.03" r="11.26"/><circle cx="179.02" cy="388.76" r="13.43"/><circle cx="791.96" cy="467.60" r="4.52"/><circle cx="746.50" cy="576.93" r="3.58"/><circle cx="733.66" cy="607.80" r="3.31"/><circle cx="805.86" cy="250.86" r="12.11"/><circle cx="738.03" cy="525.66" r="9.33"/><circle cx="827.79" cy="162.04" r="13.01"/><circle cx="562.35" cy="591.13" r="3.75"/><circle cx="512.43" cy="549.25" r="4.26"/><circle cx="633.62" cy="650.93" r="3.03"/><circle cx="977.50" cy="684.43" r="10.37"/><circle cx="987.39" cy="683.81" r="10.47"/><circle cx="1320.31" cy="663.14" r="13.77"/><circle cx="495.24" cy="829.36" r="4.12"/><circle cx="628.01" cy="744.50" r="2.93"/><circle cx="548.95" cy="795.03" r="3.64"/><circle cx="758.80" cy="869.76" r="9.39"/><circle cx="865.11" cy="1147.09" r="12.34"/><circle cx="890.99" cy="1214.61" r="13.05"/><circle cx="721.10" cy="800.13" r="3.01"/><circle cx="760.35" cy="944.95" r="4.11"/><circle cx="729.43" cy="830.85" r="3.25"/><circle cx="401.72" cy="933.99" r="11.37"/><circle cx="520.43" cy="839.93" r="9.86"/><circle cx="215.81" cy="1081.29" r="13.73"/><circle cx="901.18" cy="710.13" r="3.69"/><circle cx="902.51" cy="710.19" r="3.70"/><circle cx="765.31" cy="704.79" r="2.72"/><circle cx="515.31" cy="580.27" r="9.85"/><circle cx="377.43" cy="486.61" r="11.52"/><circle cx="192.16" cy="360.75" r="13.76"/><circle cx="778.82" cy="466.15" r="3.91"/><circle cx="739.77" cy="575.38" r="3.10"/><circle cx="728.22" cy="607.69" r="2.86"/><circle cx="829.70" cy="253.35" r="12.44"/><circle cx="747.01" cy="527.74" r="9.56"/><circle cx="855.28" cy="168.45" r="13.33"/><circle cx="506.54" cy="559.89" r="3.74"/><circle cx="631.52" cy="654.38" r="2.66"/><circle cx="558.94" cy="599.51" r="3.29"/><circle cx="1323.70" cy="694.86" r="14.12"/><circle cx="987.28" cy="698.68" r="10.73"/><circle cx="980.65" cy="698.75" r="10.66"/><circle cx="631.01" cy="747.27" r="2.62"/><circle cx="554.36" cy="801.92" r="3.26"/><circle cx="503.86" cy="837.92" r="3.69"/><circle cx="842.16" cy="1154.59" r="12.65"/><circle cx="750.48" cy="873.58" r="9.64"/><circle cx="865.65" cy="1226.59" r="13.41"/><circle cx="735.45" cy="827.51" r="2.99"/><circle cx="772.18" cy="940.09" r="3.79"/><circle cx="726.03" cy="798.66" r="2.78"/><circle cx="388.32" cy="920.30" r="11.70"/><circle cx="197.05" cy="1056.68" r="14.09"/><circle cx="514.32" cy="830.47" r="10.12"/><circle cx="765.13" cy="701.20" r="2.61"/><circle cx="902.63" cy="699.64" r="3.56"/><circle cx="899.98" cy="699.67" r="3.54"/><circle cx="520.73" cy="570.61" r="10.14"/><circle cx="390.08" cy="471.84" r="11.82"/><circle cx="209.16" cy="335.04" r="14.15"/><circle cx="766.65" cy="462.57" r="3.94"/><circle cx="733.47" cy="572.67" r="3.13"/><circle cx="723.21" cy="606.73" r="2.88"/><circle cx="755.61" cy="531.08" r="9.82"/><circle cx="852.80" cy="259.21" r="12.81"/><circle cx="881.56" cy="178.79" r="13.69"/><circle cx="628.82" cy="657.38" r="2.82"/><circle cx="554.35" cy="606.79" r="3.48"/><circle cx="498.93" cy="569.14" r="3.97"/><circle cx="981.71" cy="713.30" r="10.99"/><circle cx="985.02" cy="713.43" r="11.02"/><circle cx="1322.45" cy="726.71" r="14.54"/><circle cx="633.38" cy="750.43" r="2.91"/><circle cx="510.64" cy="847.68" r="4.09"/><circle cx="558.48" cy="809.78" r="3.63"/><circle cx="741.71" cy="876.16" r="9.94"/><circle cx="818.29" cy="1158.69" r="13.01"/><circle cx="838.91" cy="1234.75" r="13.83"/><circle cx="741.79" cy="825.36" r="3.45"/><circle cx="784.75" cy="937.46" r="4.39"/><circle cx="731.33" cy="798.07" r="3.22"/><circle cx="509.61" cy="820.18" r="10.41"/><circle cx="182.04" cy="1029.55" r="14.52"/><circle cx="377.09" cy="904.88" r="12.07"/><circle cx="904.71" cy="688.95" r="4.23"/><circle cx="765.63" cy="697.58" r="3.10"/><circle cx="900.70" cy="689.20" r="4.20"/><circle cx="404.81" cy="458.96" r="12.17"/><circle cx="527.46" cy="561.86" r="10.47"/><circle cx="229.72" cy="312.07" r="14.60"/><circle cx="755.05" cy="456.71" r="4.77"/><circle cx="727.41" cy="568.69" r="3.79"/><circle cx="718.47" cy="604.88" r="3.48"/><circle cx="874.79" cy="268.37" r="13.24"/><circle cx="906.17" cy="192.88" r="14.11"/><circle cx="763.67" cy="535.64" r="10.13"/><circle cx="489.36" cy="577.35" r="4.87"/><circle cx="625.45" cy="660.04" r="3.47"/><circle cx="548.43" cy="613.24" r="4.26"/><circle cx="980.65" cy="727.82" r="11.36"/><circle cx="1316.57" cy="758.14" r="15.01"/><circle cx="980.65" cy="727.82" r="11.36"/><circle cx="515.84" cy="858.93" r="5.06"/><circle cx="561.48" cy="818.84" r="4.51"/><circle cx="635.22" cy="754.07" r="3.61"/><circle cx="811.21" cy="1238.95" r="14.30"/><circle cx="732.64" cy="877.46" r="10.27"/><circle cx="793.90" cy="1159.34" r="13.41"/><circle cx="737.14" cy="798.33" r="4.02"/><circle cx="798.46" cy="936.88" r="5.47"/><circle cx="748.64" cy="824.32" r="4.30"/><circle cx="368.21" cy="887.97" r="12.50"/><circle cx="506.35" cy="809.24" r="10.75"/><circle cx="171.01" cy="1000.38" r="14.99"/><circle cx="766.78" cy="693.82" r="3.88"/><circle cx="903.27" cy="678.38" r="5.25"/><circle cx="908.70" cy="677.76" r="5.30"/><circle cx="421.35" cy="448.19" r="12.56"/><circle cx="253.50" cy="292.21" r="15.10"/><circle cx="535.39" cy="554.15" r="10.83"/><circle cx="743.60" cy="448.54" r="5.97"/><circle cx="721.35" cy="563.40" r="4.76"/><circle cx="713.84" cy="602.14" r="4.35"/><circle cx="895.29" cy="280.65" r="13.71"/><circle cx="771.07" cy="541.32" r="10.47"/><circle cx="928.73" cy="210.46" r="14.58"/><circle cx="621.35" cy="662.47" r="4.35"/><circle cx="477.69" cy="584.86" r="6.10"/><circle cx="541.10" cy="619.12" r="5.33"/><circle cx="977.50" cy="742.07" r="11.77"/><circle cx="974.28" cy="741.62" r="11.73"/><circle cx="1306.20" cy="788.62" r="15.52"/><circle cx="519.78" cy="871.90" r="6.33"/><circle cx="563.57" cy="829.31" r="5.64"/><circle cx="636.62" cy="758.28" r="4.51"/><circle cx="783.03" cy="1239.13" r="14.81"/><circle cx="723.42" cy="877.47" r="10.63"/><circle cx="769.42" cy="1156.57" r="13.86"/><circle cx="756.17" cy="824.21" r="5.35"/><circle cx="813.65" cy="938.09" r="6.82"/><circle cx="743.62" cy="799.33" r="5.02"/><circle cx="504.60" cy="797.84" r="11.11"/><circle cx="164.12" cy="969.67" r="15.50"/><circle cx="361.83" cy="869.89" r="12.95"/><circle cx="907.54" cy="666.89" r="6.51"/><circle cx="768.53" cy="689.80" r="4.82"/><circle cx="914.49" cy="665.74" r="6.59"/><circle cx="439.41" cy="439.67" r="12.98"/><circle cx="280.05" cy="275.79" r="15.64"/><circle cx="544.38" cy="547.62" r="11.22"/><circle cx="731.87" cy="438.12" r="7.38"/><circle cx="709.15" cy="598.53" r="5.38"/><circle cx="715.06" cy="556.81" r="5.90"/><circle cx="913.96" cy="295.82" r="14.21"/><circle cx="777.70" cy="548.02" r="10.83"/><circle cx="948.88" cy="231.20" r="15.07"/><circle cx="532.32" cy="624.72" r="6.54"/><circle cx="463.82" cy="592.07" r="7.51"/><circle cx="616.48" cy="664.82" r="5.35"/><circle cx="972.32" cy="755.82" r="12.20"/><circle cx="966.03" cy="754.60" r="12.12"/><circle cx="1291.55" cy="817.66" r="16.06"/><circle cx="522.83" cy="886.74" r="7.74"/><circle cx="565.04" cy="841.33" r="6.92"/><circle cx="637.73" cy="763.10" r="5.51"/><circle cx="714.21" cy="876.19" r="11.00"/><circle cx="745.25" cy="1150.47" r="14.32"/><circle cx="754.85" cy="1235.34" r="15.34"/><circle cx="750.90" cy="800.96" r="6.12"/><circle cx="830.60" cy="940.78" r="8.31"/><circle cx="764.52" cy="824.86" r="6.50"/><circle cx="504.35" cy="786.17" r="11.48"/><circle cx="161.43" cy="937.95" r="16.03"/><circle cx="358.03" cy="850.93" r="13.42"/><circle cx="770.83" cy="685.41" r="5.83"/><circle cx="921.90" cy="652.57" r="7.99"/><circle cx="913.31" cy="654.44" r="7.87"/><circle cx="308.91" cy="263.02" r="16.19"/><circle cx="458.66" cy="433.50" r="13.40"/><circle cx="554.28" cy="542.36" r="11.62"/><circle cx="708.31" cy="548.97" r="7.11"/><circle cx="719.45" cy="425.57" r="8.88"/><circle cx="704.23" cy="594.13" r="6.46"/><circle cx="930.51" cy="313.61" r="14.71"/><circle cx="966.31" cy="254.69" r="15.57"/><circle cx="783.46" cy="555.61" r="11.20"/><circle cx="610.83" cy="667.21" r="6.41"/><circle cx="447.76" cy="599.42" r="8.99"/><circle cx="522.14" cy="630.34" r="7.81"/><circle cx="965.21" cy="768.83" r="12.63"/><circle cx="956.08" cy="766.57" r="12.51"/><circle cx="1272.94" cy="844.79" r="16.61"/><circle cx="525.40" cy="903.55" r="9.19"/><circle cx="566.16" cy="854.98" r="8.24"/><circle cx="638.66" cy="768.56" r="6.55"/><circle cx="705.16" cy="873.68" r="11.37"/><circle cx="721.77" cy="1141.21" r="14.77"/><circle cx="727.14" cy="1227.68" r="15.87"/><circle cx="759.09" cy="803.05" r="7.25"/><circle cx="773.79" cy="826.05" r="7.67"/><circle cx="849.53" cy="944.56" r="9.82"/><circle cx="356.84" cy="831.43" r="13.89"/><circle cx="505.57" cy="774.42" r="11.85"/><circle cx="162.91" cy="905.77" r="16.55"/><circle cx="920.29" cy="640.80" r="9.24"/><circle cx="930.67" cy="637.98" r="9.41"/><circle cx="773.58" cy="680.57" r="6.86"/><circle cx="564.91" cy="538.45" r="12.01"/><circle cx="478.77" cy="429.73" r="13.81"/><circle cx="339.56" cy="254.05" r="16.72"/><circle cx="705.95" cy="411.14" r="10.38"/><circle cx="700.88" cy="539.98" r="8.33"/><circle cx="698.95" cy="589.04" r="7.55"/><circle cx="788.27" cy="563.96" r="11.55"/><circle cx="980.83" cy="280.51" r="16.05"/><circle cx="944.71" cy="333.67" r="15.20"/><circle cx="429.62" cy="607.30" r="10.47"/><circle cx="604.44" cy="669.80" r="7.46"/><circle cx="510.64" cy="636.27" r="9.08"/><circle cx="956.34" cy="780.90" r="13.05"/><circle cx="944.63" cy="777.37" r="12.88"/><circle cx="1250.75" cy="869.62" r="17.12"/><circle cx="527.92" cy="922.33" r="10.63"/><circle cx="567.25" cy="870.30" r="9.55"/><circle cx="639.57" cy="774.65" r="7.57"/><circle cx="696.41" cy="869.99" r="11.73"/><circle cx="699.34" cy="1129.01" r="15.20"/><circle cx="700.33" cy="1216.37" r="16.37"/><circle cx="784.01" cy="827.55" r="8.82"/><circle cx="768.25" cy="805.43" r="8.36"/><circle cx="870.59" cy="948.97" r="11.31"/><circle cx="508.20" cy="762.78" r="12.18"/><circle cx="168.42" cy="873.64" r="17.03"/><circle cx="358.22" cy="811.71" r="14.32"/><circle cx="928.16" cy="625.77" r="10.57"/><circle cx="776.67" cy="675.19" r="7.86"/><circle cx="940.48" cy="621.75" r="10.79"/><circle cx="499.39" cy="428.35" r="14.19"/><circle cx="576.07" cy="535.90" r="12.37"/><circle cx="371.47" cy="248.94" r="17.21"/><circle cx="691.02" cy="395.12" r="11.83"/><circle cx="692.55" cy="529.99" r="9.51"/><circle cx="693.15" cy="583.38" r="8.59"/><circle cx="956.39" cy="355.62" r="15.65"/><circle cx="992.27" cy="308.17" r="16.47"/><circle cx="792.10" cy="572.91" r="11.87"/><circle cx="597.36" cy="672.73" r="8.47"/><circle cx="409.57" cy="616.14" r="11.89"/><circle cx="497.97" cy="642.78" r="10.28"/><circle cx="945.88" cy="791.87" r="13.42"/><circle cx="931.91" cy="786.88" r="13.21"/><circle cx="1225.44" cy="891.82" r="17.58"/><circle cx="530.80" cy="942.97" r="11.99"/><circle cx="568.66" cy="887.25" r="10.81"/><circle cx="640.59" cy="781.36" r="8.55"/><circle cx="688.08" cy="865.22" r="12.04"/><circle cx="678.28" cy="1114.18" r="15.57"/><circle cx="674.84" cy="1201.69" r="16.81"/><circle cx="795.22" cy="829.11" r="9.90"/><circle cx="893.82" cy="953.56" r="12.73"/><circle cx="778.42" cy="807.91" r="9.42"/><circle cx="177.74" cy="842.07" r="17.44"/><circle cx="362.08" cy="792.10" r="14.70"/><circle cx="512.15" cy="751.43" r="12.47"/><circle cx="950.97" cy="603.69" r="12.10"/><circle cx="779.99" cy="669.23" r="8.80"/><circle cx="936.57" cy="609.21" r="11.82"/><circle cx="520.18" cy="429.27" r="14.50"/><circle cx="587.59" cy="534.73" r="12.68"/><circle cx="404.08" cy="247.63" r="17.62"/><circle cx="674.38" cy="377.90" r="13.19"/><circle cx="683.15" cy="519.22" r="10.62"/><circle cx="686.76" cy="577.30" r="9.57"/><circle cx="965.43" cy="379.07" r="16.02"/><circle cx="1000.58" cy="337.17" r="16.82"/><circle cx="794.92" cy="582.30" r="12.13"/><circle cx="589.68" cy="676.12" r="9.42"/><circle cx="387.87" cy="626.31" r="13.22"/><circle cx="484.34" cy="650.12" r="11.40"/><circle cx="934.06" cy="801.60" r="13.72"/><circle cx="918.16" cy="794.99" r="13.47"/><circle cx="1197.51" cy="911.14" r="17.95"/><circle cx="534.48" cy="965.33" r="13.26"/><circle cx="570.70" cy="905.74" r="11.97"/><circle cx="641.87" cy="788.61" r="9.45"/><circle cx="680.29" cy="859.47" r="12.28"/><circle cx="658.85" cy="1097.04" r="15.86"/><circle cx="651.00" cy="1183.99" r="17.16"/><circle cx="919.20" cy="957.81" r="14.03"/><circle cx="789.61" cy="810.28" r="10.39"/><circle cx="807.36" cy="830.49" r="10.89"/><circle cx="368.28" cy="772.91" r="15.00"/><circle cx="190.57" cy="811.53" r="17.75"/><circle cx="517.30" cy="740.52" r="12.69"/><circle cx="945.10" cy="591.08" r="12.96"/><circle cx="961.72" cy="583.72" r="13.29"/><circle cx="783.38" cy="662.66" r="9.67"/><circle cx="540.83" cy="432.39" r="14.72"/><circle cx="436.87" cy="250.00" r="17.93"/><circle cx="599.26" cy="534.91" r="12.91"/><circle cx="655.79" cy="359.92" r="14.42"/><circle cx="672.53" cy="507.88" r="11.64"/><circle cx="679.68" cy="571.00" r="10.45"/><circle cx="971.80" cy="403.57" r="16.30"/><circle cx="1005.78" cy="367.01" r="17.07"/><circle cx="796.74" cy="591.97" r="12.32"/><circle cx="364.86" cy="638.14" r="14.41"/><circle cx="581.49" cy="680.11" r="10.27"/><circle cx="470.00" cy="658.51" r="12.41"/><circle cx="921.10" cy="809.98" r="13.94"/><circle cx="903.66" cy="801.67" r="13.64"/><circle cx="1167.53" cy="927.41" r="18.21"/><circle cx="539.35" cy="989.15" r="14.38"/><circle cx="573.69" cy="925.59" r="13.02"/><circle cx="643.53" cy="796.34" r="10.26"/><circle cx="673.13" cy="852.89" r="12.44"/><circle cx="641.26" cy="1077.98" r="16.03"/><circle cx="629.12" cy="1163.69" r="17.40"/><circle cx="801.78" cy="812.33" r="11.26"/><circle cx="946.60" cy="961.25" r="15.18"/><circle cx="820.37" cy="831.44" r="11.77"/><circle cx="376.61" cy="754.40" r="15.19"/><circle cx="523.49" cy="730.19" r="12.82"/><circle cx="206.53" cy="782.43" r="17.94"/><circle cx="786.72" cy="655.46" r="10.43"/><circle cx="972.31" cy="561.80" r="14.36"/><circle cx="953.36" cy="571.36" r="13.96"/><circle cx="469.32" cy="255.82" r="18.11"/><circle cx="610.90" cy="536.36" r="13.05"/><circle cx="561.02" cy="437.52" r="14.84"/><circle cx="635.11" cy="341.67" r="15.50"/><circle cx="660.59" cy="496.25" r="12.53"/><circle cx="671.86" cy="564.64" r="11.22"/><circle cx="975.55" cy="428.71" r="16.45"/><circle cx="1007.97" cy="397.19" r="17.18"/><circle cx="797.58" cy="601.77" r="12.41"/><circle cx="455.24" cy="668.12" r="13.27"/><circle cx="340.94" cy="651.93" r="15.46"/><circle cx="572.94" cy="684.79" r="11.02"/><circle cx="907.26" cy="816.96" r="14.05"/><circle cx="1136.05" cy="940.57" r="18.32"/><circle cx="888.66" cy="806.90" r="13.70"/><circle cx="545.77" cy="1014.11" r="15.35"/><circle cx="577.94" cy="946.59" r="13.93"/><circle cx="645.69" cy="804.43" r="10.95"/><circle cx="666.68" cy="845.61" r="12.50"/><circle cx="609.42" cy="1141.23" r="17.49"/><circle cx="625.65" cy="1057.40" r="16.08"/><circle cx="975.80" cy="963.39" r="16.17"/><circle cx="814.86" cy="813.84" r="12.01"/><circle cx="834.12" cy="831.73" r="12.51"/><circle cx="386.82" cy="736.82" r="15.25"/><circle cx="225.19" cy="755.11" r="17.97"/><circle cx="530.58" cy="720.55" r="12.84"/><circle cx="982.28" cy="537.97" r="15.26"/><circle cx="960.94" cy="550.14" r="14.80"/><circle cx="789.85" cy="647.65" r="11.08"/><circle cx="580.50" cy="444.45" r="14.82"/><circle cx="622.35" cy="538.99" r="13.08"/><circle cx="500.97" cy="264.78" r="18.14"/><circle cx="612.27" cy="323.67" r="16.40"/><circle cx="647.25" cy="484.62" r="13.29"/><circle cx="663.29" cy="558.43" r="11.87"/><circle cx="976.78" cy="454.06" r="16.45"/><circle cx="797.50" cy="611.53" r="12.39"/><circle cx="1007.32" cy="427.23" r="17.15"/><circle cx="564.17" cy="690.24" r="11.65"/><circle cx="316.59" cy="667.90" r="16.33"/><circle cx="440.38" cy="679.07" r="13.99"/><circle cx="892.82" cy="822.51" r="14.03"/><circle cx="1103.66" cy="950.63" r="18.26"/><circle cx="873.42" cy="810.73" r="13.64"/><circle cx="583.72" cy="968.46" r="14.69"/><circle cx="554.03" cy="1039.85" r="16.15"/><circle cx="648.44" cy="812.77" r="11.52"/><circle cx="660.98" cy="837.80" r="12.45"/><circle cx="612.12" cy="1035.74" r="15.98"/><circle cx="592.03" cy="1117.10" r="17.43"/><circle cx="1006.52" cy="963.77" r="16.98"/><circle cx="828.72" cy="814.61" r="12.63"/><circle cx="848.44" cy="831.15" r="13.11"/><circle cx="398.64" cy="720.37" r="15.18"/><circle cx="246.06" cy="729.84" r="17.84"/><circle cx="538.38" cy="711.69" r="12.74"/><circle cx="967.42" cy="527.56" r="15.48"/><circle cx="991.18" cy="512.37" r="16.00"/><circle cx="792.63" cy="639.28" r="11.60"/><circle cx="599.02" cy="452.91" r="14.67"/><circle cx="633.43" cy="542.67" r="12.98"/><circle cx="531.40" cy="276.51" r="17.99"/><circle cx="587.29" cy="306.46" r="17.12"/><circle cx="632.51" cy="473.31" r="13.91"/><circle cx="654.00" cy="552.57" r="12.38"/><circle cx="1004.09" cy="456.69" r="16.94"/><circle cx="975.66" cy="479.22" r="16.30"/><circle cx="796.58" cy="621.12" r="12.26"/><circle cx="292.30" cy="686.17" r="17.02"/><circle cx="555.37" cy="696.53" r="12.14"/><circle cx="425.76" cy="691.43" r="14.55"/><circle cx="878.03" cy="826.67" r="13.87"/><circle cx="858.20" cy="813.21" r="13.45"/><circle cx="1070.92" cy="957.71" r="18.03"/><circle cx="591.23" cy="990.85" r="15.29"/><circle cx="564.40" cy="1065.91" r="16.76"/><circle cx="651.88" cy="821.22" r="11.96"/><circle cx="656.04" cy="829.61" r="12.27"/><circle cx="600.66" cy="1013.42" r="15.71"/><circle cx="577.03" cy="1091.83" r="17.18"/><circle cx="1038.37" cy="961.99" r="17.60"/><circle cx="843.23" cy="814.45" r="13.11"/><circle cx="863.15" cy="829.52" r="13.57"/><circle cx="268.61" cy="706.83" r="17.53"/><circle cx="546.71" cy="703.68" r="12.51"/><circle cx="411.73" cy="705.21" r="14.94"/><circle cx="972.45" cy="503.83" r="15.98"/><circle cx="998.59" cy="485.19" r="16.56"/><circle cx="794.92" cy="630.40" r="11.99"/><circle cx="616.41" cy="462.64" r="14.36"/><circle cx="644.01" cy="547.25" r="12.75"/><circle cx="560.27" cy="290.56" r="17.65"/></g><g fill="#858583" style="mix-blend-mode:multiply"><circle cx="579.60" cy="315.20" r="9.37"/><circle cx="663.13" cy="571.23" r="6.68"/><circle cx="607.13" cy="399.60" r="8.48"/><circle cx="857.79" cy="586.85" r="7.27"/><circle cx="1065.39" cy="438.83" r="9.79"/><circle cx="884.44" cy="567.85" r="7.59"/><circle cx="290.97" cy="701.18" r="9.48"/><circle cx="422.71" cy="699.69" r="8.16"/><circle cx="562.40" cy="698.11" r="6.76"/><circle cx="805.00" cy="772.87" r="6.67"/><circle cx="987.51" cy="910.86" r="8.92"/><circle cx="1008.26" cy="926.55" r="9.18"/><circle cx="581.69" cy="1102.38" r="9.59"/><circle cx="634.59" cy="926.83" r="7.74"/><circle cx="657.16" cy="851.94" r="6.95"/><circle cx="618.07" cy="936.84" r="7.95"/><circle cx="646.63" cy="856.96" r="7.11"/><circle cx="553.52" cy="1117.41" r="9.83"/><circle cx="1001.90" cy="898.87" r="8.94"/><circle cx="803.09" cy="763.81" r="6.50"/><circle cx="983.37" cy="886.28" r="8.71"/><circle cx="408.90" cy="684.89" r="8.35"/><circle cx="267.93" cy="679.34" r="9.72"/><circle cx="554.06" cy="690.60" r="6.93"/><circle cx="1033.10" cy="435.73" r="9.54"/><circle cx="869.30" cy="565.52" r="7.40"/><circle cx="843.30" cy="586.12" r="7.07"/><circle cx="617.51" cy="377.42" r="8.70"/><circle cx="667.78" cy="562.87" r="6.83"/><circle cx="593.64" cy="289.33" r="9.58"/><circle cx="567.92" cy="341.49" r="9.12"/><circle cx="598.72" cy="421.83" r="8.24"/><circle cx="659.24" cy="579.73" r="6.50"/><circle cx="1098.11" cy="444.60" r="10.02"/><circle cx="872.62" cy="588.72" r="7.44"/><circle cx="899.60" cy="571.48" r="7.75"/><circle cx="570.98" cy="704.76" r="6.56"/><circle cx="437.32" cy="713.06" r="7.95"/><circle cx="314.89" cy="720.66" r="9.21"/><circle cx="989.65" cy="936.15" r="9.11"/><circle cx="806.23" cy="782.27" r="6.82"/><circle cx="1012.53" cy="955.35" r="9.39"/><circle cx="649.81" cy="916.02" r="7.50"/><circle cx="667.03" cy="846.26" r="6.76"/><circle cx="607.92" cy="1085.74" r="9.31"/><circle cx="600.37" cy="945.76" r="8.13"/><circle cx="635.55" cy="861.13" r="7.26"/><circle cx="523.63" cy="1130.32" r="10.03"/><circle cx="977.55" cy="862.73" r="8.46"/><circle cx="800.60" cy="755.20" r="6.30"/><circle cx="993.83" cy="872.62" r="8.66"/><circle cx="246.32" cy="655.20" r="9.93"/><circle cx="546.16" cy="682.26" r="7.08"/><circle cx="396.24" cy="668.73" r="8.51"/><circle cx="1001.72" cy="434.99" r="9.24"/><circle cx="829.35" cy="586.40" r="6.84"/><circle cx="854.44" cy="564.36" r="7.19"/><circle cx="629.93" cy="355.70" r="8.89"/><circle cx="673.20" cy="554.82" r="6.97"/><circle cx="610.08" cy="264.39" r="9.77"/><circle cx="592.12" cy="443.73" r="7.96"/><circle cx="558.46" cy="367.69" r="8.84"/><circle cx="656.07" cy="588.22" r="6.30"/><circle cx="887.57" cy="591.87" r="7.60"/><circle cx="914.54" cy="576.50" r="7.89"/><circle cx="1130.73" cy="453.28" r="10.22"/><circle cx="339.17" cy="737.79" r="8.90"/><circle cx="452.36" cy="724.98" r="7.69"/><circle cx="579.63" cy="710.57" r="6.34"/><circle cx="806.66" cy="791.90" r="6.95"/><circle cx="989.52" cy="961.81" r="9.27"/><circle cx="1014.38" cy="984.91" r="9.59"/><circle cx="632.03" cy="1068.01" r="8.99"/><circle cx="676.18" cy="840.11" r="6.53"/><circle cx="663.66" cy="904.73" r="7.23"/><circle cx="492.35" cy="1140.65" r="10.22"/><circle cx="581.63" cy="953.29" r="8.30"/><circle cx="624.04" cy="864.29" r="7.39"/><circle cx="970.42" cy="840.44" r="8.17"/><circle cx="984.46" cy="848.03" r="8.34"/><circle cx="797.69" cy="747.12" r="6.07"/><circle cx="385.06" cy="651.34" r="8.65"/><circle cx="538.88" cy="673.12" r="7.22"/><circle cx="226.67" cy="628.91" r="10.12"/><circle cx="840.06" cy="564.20" r="6.93"/><circle cx="971.65" cy="436.24" r="8.89"/><circle cx="816.09" cy="587.50" r="6.57"/><circle cx="644.39" cy="334.86" r="9.06"/><circle cx="679.40" cy="547.24" r="7.09"/><circle cx="628.91" cy="240.89" r="9.93"/><circle cx="551.01" cy="393.36" r="8.50"/><circle cx="653.55" cy="596.54" r="6.06"/><circle cx="587.14" cy="464.94" r="7.64"/><circle cx="928.97" cy="582.96" r="8.02"/><circle cx="902.40" cy="596.37" r="7.75"/><circle cx="1162.70" cy="465.01" r="10.40"/><circle cx="363.27" cy="752.66" r="8.53"/><circle cx="588.16" cy="715.59" r="6.08"/><circle cx="467.49" cy="735.48" r="7.40"/><circle cx="806.21" cy="801.61" r="7.07"/><circle cx="986.92" cy="987.45" r="9.42"/><circle cx="1013.53" cy="1014.81" r="9.76"/><circle cx="676.14" cy="893.27" r="6.92"/><circle cx="653.98" cy="1049.74" r="8.62"/><circle cx="684.57" cy="833.69" r="6.27"/><circle cx="562.08" cy="959.16" r="8.45"/><circle cx="612.25" cy="866.31" r="7.50"/><circle cx="460.06" cy="1147.98" r="10.38"/><circle cx="974.24" cy="825.28" r="7.96"/><circle cx="962.36" cy="819.62" r="7.82"/><circle cx="794.49" cy="739.62" r="5.81"/><circle cx="532.40" cy="663.26" r="7.34"/><circle cx="375.67" cy="632.90" r="8.78"/><circle cx="209.49" cy="600.71" r="10.29"/><circle cx="943.24" cy="439.03" r="8.49"/><circle cx="826.35" cy="564.83" r="6.63"/><circle cx="803.67" cy="589.24" r="6.27"/><circle cx="686.32" cy="540.30" r="7.20"/><circle cx="650.00" cy="219.34" r="10.08"/><circle cx="660.86" cy="315.32" r="9.22"/><circle cx="545.30" cy="418.07" r="8.11"/><circle cx="651.59" cy="604.56" r="5.78"/><circle cx="583.55" cy="485.18" r="7.27"/><circle cx="916.86" cy="602.28" r="7.88"/><circle cx="942.64" cy="590.87" r="8.13"/><circle cx="1193.44" cy="479.86" r="10.56"/><circle cx="386.72" cy="765.46" r="8.11"/><circle cx="596.41" cy="719.88" r="5.78"/><circle cx="482.36" cy="744.67" r="7.05"/><circle cx="804.82" cy="811.28" r="7.18"/><circle cx="981.68" cy="1012.64" r="9.55"/><circle cx="1009.76" cy="1044.60" r="9.92"/><circle cx="687.26" cy="881.94" r="6.55"/><circle cx="692.20" cy="827.21" r="5.96"/><circle cx="673.77" cy="1031.47" r="8.19"/><circle cx="600.35" cy="867.06" r="7.60"/><circle cx="427.22" cy="1151.99" r="10.53"/><circle cx="541.97" cy="963.15" r="8.59"/><circle cx="963.61" cy="804.44" r="7.53"/><circle cx="953.80" cy="800.36" r="7.42"/><circle cx="791.14" cy="732.73" r="5.50"/><circle cx="195.24" cy="570.91" r="10.45"/><circle cx="368.34" cy="613.64" r="8.89"/><circle cx="526.88" cy="652.78" r="7.46"/><circle cx="916.74" cy="442.92" r="8.02"/><circle cx="813.46" cy="566.03" r="6.27"/><circle cx="792.17" cy="591.41" r="5.91"/><circle cx="679.22" cy="297.49" r="9.37"/><circle cx="673.18" cy="200.22" r="10.22"/><circle cx="693.92" cy="534.14" r="7.30"/><circle cx="581.07" cy="504.17" r="6.84"/><circle cx="540.99" cy="441.47" r="7.65"/><circle cx="650.09" cy="612.16" r="5.45"/><circle cx="930.69" cy="609.61" r="8.01"/><circle cx="955.26" cy="600.19" r="8.23"/><circle cx="1222.39" cy="497.80" r="10.72"/><circle cx="604.25" cy="723.54" r="5.43"/><circle cx="496.66" cy="752.70" r="6.64"/><circle cx="409.08" cy="776.44" r="7.62"/><circle cx="802.43" cy="820.72" r="7.28"/><circle cx="973.76" cy="1036.95" r="9.67"/><circle cx="1002.94" cy="1073.78" r="10.08"/><circle cx="691.52" cy="1013.69" r="7.68"/><circle cx="699.11" cy="820.87" r="5.59"/><circle cx="697.13" cy="871.02" r="6.14"/><circle cx="588.53" cy="866.48" r="7.70"/><circle cx="394.31" cy="1152.39" r="10.68"/><circle cx="521.57" cy="965.05" r="8.73"/><circle cx="945.15" cy="782.71" r="6.95"/><circle cx="787.80" cy="726.46" r="5.15"/><circle cx="953.02" cy="785.53" r="7.04"/><circle cx="184.31" cy="539.90" r="10.61"/><circle cx="363.30" cy="593.83" r="9.00"/><circle cx="522.49" cy="641.80" r="7.57"/><circle cx="801.49" cy="567.56" r="5.86"/><circle cx="781.65" cy="593.80" r="5.51"/><circle cx="892.34" cy="447.40" r="7.48"/><circle cx="699.30" cy="281.77" r="9.51"/><circle cx="702.10" cy="528.91" r="7.40"/><circle cx="698.19" cy="183.96" r="10.35"/><circle cx="648.92" cy="619.24" r="5.07"/><circle cx="537.71" cy="463.27" r="7.12"/><circle cx="579.39" cy="521.73" r="6.35"/><circle cx="943.63" cy="618.32" r="8.13"/><circle cx="966.59" cy="610.83" r="8.33"/><circle cx="1248.97" cy="518.70" r="10.87"/><circle cx="611.55" cy="726.66" r="5.03"/><circle cx="510.12" cy="759.75" r="6.16"/><circle cx="429.98" cy="785.90" r="7.06"/><circle cx="799.04" cy="829.80" r="7.39"/><circle cx="963.14" cy="1059.95" r="9.79"/><circle cx="993.02" cy="1101.87" r="10.23"/><circle cx="705.86" cy="860.76" r="5.66"/><circle cx="707.41" cy="996.88" r="7.10"/><circle cx="705.34" cy="814.85" r="5.17"/><circle cx="501.19" cy="964.74" r="8.86"/><circle cx="576.98" cy="864.50" r="7.80"/><circle cx="361.86" cy="1149.02" r="10.82"/><circle cx="942.87" cy="768.48" r="6.47"/><circle cx="936.81" cy="766.66" r="6.40"/><circle cx="784.60" cy="720.79" r="4.74"/><circle cx="519.34" cy="630.48" r="7.69"/><circle cx="360.72" cy="573.77" r="9.11"/><circle cx="177.05" cy="508.11" r="10.76"/><circle cx="870.10" cy="451.98" r="6.86"/><circle cx="790.50" cy="569.16" r="5.38"/><circle cx="772.13" cy="596.21" r="5.04"/><circle cx="720.84" cy="268.51" r="9.66"/><circle cx="724.68" cy="170.94" r="10.48"/><circle cx="710.76" cy="524.73" r="7.49"/><circle cx="535.04" cy="483.26" r="6.51"/><circle cx="647.94" cy="625.74" r="4.64"/><circle cx="578.20" cy="537.73" r="5.80"/><circle cx="955.44" cy="628.35" r="8.25"/><circle cx="976.40" cy="622.66" r="8.44"/><circle cx="1272.65" cy="542.36" r="11.02"/><circle cx="522.51" cy="766.07" r="5.62"/><circle cx="618.20" cy="729.39" r="4.57"/><circle cx="449.11" cy="794.20" r="6.42"/><circle cx="794.66" cy="838.34" r="7.49"/><circle cx="949.90" cy="1081.22" r="9.91"/><circle cx="980.03" cy="1128.35" r="10.38"/><circle cx="711.01" cy="809.33" r="4.70"/><circle cx="721.69" cy="981.46" r="6.44"/><circle cx="713.62" cy="851.37" r="5.12"/><circle cx="565.90" cy="861.11" r="7.90"/><circle cx="330.42" cy="1141.79" r="10.97"/><circle cx="481.16" cy="962.11" r="9.00"/><circle cx="781.68" cy="715.67" r="4.27"/><circle cx="929.18" cy="752.09" r="5.79"/><circle cx="933.56" cy="753.17" r="5.83"/><circle cx="360.73" cy="553.78" r="9.23"/><circle cx="517.53" cy="618.97" r="7.80"/><circle cx="173.72" cy="476.03" r="10.92"/><circle cx="850.03" cy="456.18" r="6.16"/><circle cx="780.51" cy="570.59" r="4.85"/><circle cx="763.59" cy="598.44" r="4.52"/><circle cx="743.57" cy="258.01" r="9.81"/><circle cx="719.77" cy="521.70" r="7.60"/><circle cx="752.28" cy="161.49" r="10.62"/><circle cx="532.55" cy="501.31" r="5.83"/><circle cx="647.01" cy="631.62" r="4.15"/><circle cx="577.16" cy="552.09" r="5.18"/><circle cx="965.88" cy="639.58" r="8.39"/><circle cx="984.49" cy="635.53" r="8.55"/><circle cx="1292.96" cy="568.49" r="11.18"/><circle cx="624.16" cy="731.84" r="4.06"/><circle cx="466.25" cy="801.73" r="5.71"/><circle cx="533.63" cy="771.91" r="5.01"/><circle cx="789.32" cy="846.20" r="7.61"/><circle cx="934.19" cy="1100.36" r="10.05"/><circle cx="964.05" cy="1152.75" r="10.55"/><circle cx="734.70" cy="967.77" r="5.70"/><circle cx="716.21" cy="804.44" r="4.17"/><circle cx="720.58" cy="843.03" r="4.53"/><circle cx="555.47" cy="856.34" r="8.01"/><circle cx="461.82" cy="957.12" r="9.16"/><circle cx="300.53" cy="1130.71" r="11.13"/><circle cx="925.44" cy="739.40" r="5.13"/><circle cx="922.61" cy="738.85" r="5.11"/><circle cx="779.15" cy="711.06" r="3.77"/><circle cx="517.15" cy="607.46" r="7.94"/><circle cx="363.38" cy="534.18" r="9.35"/><circle cx="174.48" cy="444.17" r="11.10"/><circle cx="832.03" cy="459.54" r="5.40"/><circle cx="771.49" cy="571.59" r="4.26"/><circle cx="755.97" cy="600.30" r="3.96"/><circle cx="767.15" cy="250.53" r="9.98"/><circle cx="729.01" cy="519.90" r="7.72"/><circle cx="780.56" cy="155.85" r="10.78"/><circle cx="645.99" cy="636.84" r="3.63"/><circle cx="529.81" cy="517.37" r="5.09"/><circle cx="575.95" cy="564.82" r="4.51"/><circle cx="974.73" cy="651.88" r="8.54"/><circle cx="990.68" cy="649.25" r="8.67"/><circle cx="1309.47" cy="596.70" r="11.37"/><circle cx="629.36" cy="734.17" r="3.53"/><circle cx="543.36" cy="777.57" r="4.35"/><circle cx="481.26" cy="808.91" r="4.95"/><circle cx="783.09" cy="853.22" r="7.74"/><circle cx="916.22" cy="1117.00" r="10.20"/><circle cx="945.29" cy="1174.61" r="10.74"/><circle cx="726.97" cy="835.87" r="3.91"/><circle cx="746.79" cy="956.10" r="4.93"/><circle cx="721.11" cy="800.31" r="3.60"/><circle cx="545.89" cy="850.24" r="8.14"/><circle cx="272.73" cy="1115.87" r="11.32"/><circle cx="443.51" cy="949.80" r="9.33"/><circle cx="918.78" cy="726.91" r="4.41"/><circle cx="917.40" cy="726.72" r="4.40"/><circle cx="777.11" cy="706.85" r="3.24"/><circle cx="368.68" cy="515.33" r="9.51"/><circle cx="518.23" cy="596.13" r="8.09"/><circle cx="179.42" cy="413.07" r="11.30"/><circle cx="815.92" cy="461.63" r="4.62"/><circle cx="763.36" cy="571.94" r="3.65"/><circle cx="749.21" cy="601.64" r="3.38"/><circle cx="791.21" cy="246.28" r="10.18"/><circle cx="738.31" cy="519.38" r="7.86"/><circle cx="809.06" cy="154.17" r="10.97"/><circle cx="574.28" cy="575.96" r="3.83"/><circle cx="526.41" cy="531.48" r="4.34"/><circle cx="644.74" cy="641.43" r="3.09"/><circle cx="981.82" cy="665.06" r="8.71"/><circle cx="994.84" cy="663.59" r="8.82"/><circle cx="1321.84" cy="626.58" r="11.58"/><circle cx="633.81" cy="736.51" r="2.99"/><circle cx="494.08" cy="816.15" r="4.20"/><circle cx="551.64" cy="783.34" r="3.70"/><circle cx="776.05" cy="859.28" r="7.89"/><circle cx="896.25" cy="1130.83" r="10.39"/><circle cx="924.00" cy="1193.52" r="10.96"/><circle cx="733.01" cy="829.97" r="3.30"/><circle cx="758.37" cy="946.63" r="4.17"/><circle cx="725.85" cy="797.02" r="3.05"/><circle cx="537.33" cy="842.90" r="8.29"/><circle cx="247.50" cy="1097.47" r="11.54"/><circle cx="426.54" cy="940.21" r="9.53"/><circle cx="913.81" cy="715.43" r="3.71"/><circle cx="775.64" cy="702.97" r="2.73"/><circle cx="913.81" cy="715.43" r="3.71"/><circle cx="520.80" cy="585.17" r="8.26"/><circle cx="376.57" cy="497.53" r="9.69"/><circle cx="188.52" cy="383.26" r="11.55"/><circle cx="801.46" cy="462.10" r="3.89"/><circle cx="756.00" cy="571.43" r="3.08"/><circle cx="743.16" cy="602.30" r="2.85"/><circle cx="815.36" cy="245.36" r="10.42"/><circle cx="747.53" cy="520.16" r="8.02"/><circle cx="837.29" cy="156.54" r="11.19"/><circle cx="571.85" cy="585.63" r="3.23"/><circle cx="521.93" cy="543.75" r="3.66"/><circle cx="643.12" cy="645.43" r="2.61"/><circle cx="987.00" cy="678.93" r="8.92"/><circle cx="996.89" cy="678.31" r="9.01"/><circle cx="1329.81" cy="657.64" r="11.84"/><circle cx="504.74" cy="823.86" r="3.54"/><circle cx="637.51" cy="739.00" r="2.52"/><circle cx="558.45" cy="789.53" r="3.13"/><circle cx="768.30" cy="864.26" r="8.08"/><circle cx="874.61" cy="1141.59" r="10.61"/><circle cx="900.49" cy="1209.11" r="11.23"/><circle cx="730.60" cy="794.63" r="2.59"/><circle cx="769.85" cy="939.45" r="3.54"/><circle cx="738.93" cy="825.35" r="2.79"/><circle cx="411.22" cy="928.49" r="9.78"/><circle cx="529.93" cy="834.43" r="8.48"/><circle cx="225.31" cy="1075.79" r="11.81"/><circle cx="910.68" cy="704.63" r="3.17"/><circle cx="912.01" cy="704.69" r="3.18"/><circle cx="774.81" cy="699.29" r="2.34"/><circle cx="524.81" cy="574.77" r="8.47"/><circle cx="386.93" cy="481.11" r="9.91"/><circle cx="201.66" cy="355.25" r="11.83"/><circle cx="788.32" cy="460.65" r="3.36"/><circle cx="749.27" cy="569.88" r="2.66"/><circle cx="737.72" cy="602.19" r="2.46"/><circle cx="839.20" cy="247.85" r="10.69"/><circle cx="756.51" cy="522.24" r="8.22"/><circle cx="864.78" cy="162.95" r="11.46"/><circle cx="516.04" cy="554.39" r="3.21"/><circle cx="641.02" cy="648.88" r="2.29"/><circle cx="568.44" cy="594.01" r="2.83"/><circle cx="1333.20" cy="689.36" r="12.15"/><circle cx="996.78" cy="693.18" r="9.22"/><circle cx="990.15" cy="693.25" r="9.17"/><circle cx="640.51" cy="741.77" r="2.26"/><circle cx="563.86" cy="796.42" r="2.81"/><circle cx="513.36" cy="832.42" r="3.17"/><circle cx="851.66" cy="1149.09" r="10.87"/><circle cx="759.98" cy="868.08" r="8.29"/><circle cx="875.15" cy="1221.09" r="11.54"/><circle cx="744.95" cy="822.01" r="2.57"/><circle cx="781.68" cy="934.59" r="3.26"/><circle cx="735.53" cy="793.16" r="2.39"/><circle cx="397.82" cy="914.80" r="10.06"/><circle cx="206.55" cy="1051.18" r="12.12"/><circle cx="523.82" cy="824.97" r="8.70"/><circle cx="774.63" cy="695.70" r="2.25"/><circle cx="912.13" cy="694.14" r="3.06"/><circle cx="909.48" cy="694.17" r="3.05"/><circle cx="530.23" cy="565.11" r="8.72"/><circle cx="399.58" cy="466.34" r="10.17"/><circle cx="218.66" cy="329.54" r="12.17"/><circle cx="776.15" cy="457.07" r="3.39"/><circle cx="742.97" cy="567.17" r="2.69"/><circle cx="732.71" cy="601.23" r="2.48"/><circle cx="765.11" cy="525.58" r="8.45"/><circle cx="862.30" cy="253.71" r="11.02"/><circle cx="891.06" cy="173.29" r="11.78"/><circle cx="638.32" cy="651.88" r="2.43"/><circle cx="563.85" cy="601.29" r="2.99"/><circle cx="508.43" cy="563.64" r="3.41"/><circle cx="991.21" cy="707.80" r="9.45"/><circle cx="994.52" cy="707.93" r="9.48"/><circle cx="1331.95" cy="721.21" r="12.50"/><circle cx="642.88" cy="744.93" r="2.51"/><circle cx="520.14" cy="842.18" r="3.52"/><circle cx="567.98" cy="804.28" r="3.12"/><circle cx="751.21" cy="870.66" r="8.55"/><circle cx="827.79" cy="1153.19" r="11.18"/><circle cx="848.41" cy="1229.25" r="11.90"/><circle cx="751.29" cy="819.86" r="2.97"/><circle cx="794.25" cy="931.96" r="3.77"/><circle cx="740.83" cy="792.57" r="2.77"/><circle cx="519.11" cy="814.68" r="8.96"/><circle cx="191.54" cy="1024.05" r="12.49"/><circle cx="386.59" cy="899.38" r="10.38"/><circle cx="914.21" cy="683.45" r="3.64"/><circle cx="775.13" cy="692.08" r="2.67"/><circle cx="910.20" cy="683.70" r="3.61"/><circle cx="414.31" cy="453.46" r="10.47"/><circle cx="536.96" cy="556.36" r="9.00"/><circle cx="239.22" cy="306.57" r="12.56"/><circle cx="764.55" cy="451.21" r="4.10"/><circle cx="736.91" cy="563.19" r="3.26"/><circle cx="727.97" cy="599.38" r="2.99"/><circle cx="884.29" cy="262.87" r="11.38"/><circle cx="915.67" cy="187.38" r="12.14"/><circle cx="773.17" cy="530.14" r="8.71"/><circle cx="498.86" cy="571.85" r="4.19"/><circle cx="634.95" cy="654.54" r="2.98"/><circle cx="557.93" cy="607.74" r="3.66"/><circle cx="990.15" cy="722.32" r="9.77"/><circle cx="1326.07" cy="752.64" r="12.91"/><circle cx="990.15" cy="722.32" r="9.77"/><circle cx="525.34" cy="853.43" r="4.35"/><circle cx="570.98" cy="813.34" r="3.88"/><circle cx="644.72" cy="748.57" r="3.10"/><circle cx="820.71" cy="1233.45" r="12.30"/><circle cx="742.14" cy="871.96" r="8.83"/><circle cx="803.40" cy="1153.84" r="11.54"/><circle cx="746.64" cy="792.83" r="3.46"/><circle cx="807.96" cy="931.38" r="4.71"/><circle cx="758.14" cy="818.82" r="3.69"/><circle cx="377.71" cy="882.47" r="10.75"/><circle cx="515.85" cy="803.74" r="9.24"/><circle cx="180.51" cy="994.88" r="12.89"/><circle cx="776.28" cy="688.32" r="3.34"/><circle cx="912.77" cy="672.88" r="4.51"/><circle cx="918.20" cy="672.26" r="4.56"/><circle cx="430.85" cy="442.69" r="10.80"/><circle cx="263.00" cy="286.71" r="12.99"/><circle cx="544.89" cy="548.65" r="9.32"/><circle cx="753.10" cy="443.04" r="5.14"/><circle cx="730.85" cy="557.90" r="4.10"/><circle cx="723.34" cy="596.64" r="3.75"/><circle cx="904.79" cy="275.15" r="11.79"/><circle cx="780.57" cy="535.82" r="9.01"/><circle cx="938.23" cy="204.96" r="12.54"/><circle cx="630.85" cy="656.97" r="3.74"/><circle cx="487.19" cy="579.36" r="5.25"/><circle cx="550.60" cy="613.62" r="4.58"/><circle cx="987.00" cy="736.57" r="10.12"/><circle cx="983.78" cy="736.12" r="10.09"/><circle cx="1315.70" cy="783.12" r="13.35"/><circle cx="529.28" cy="866.40" r="5.44"/><circle cx="573.07" cy="823.81" r="4.85"/><circle cx="646.12" cy="752.78" r="3.88"/><circle cx="792.53" cy="1233.63" r="12.74"/><circle cx="732.92" cy="871.97" r="9.14"/><circle cx="778.92" cy="1151.07" r="11.92"/><circle cx="765.67" cy="818.71" r="4.60"/><circle cx="823.15" cy="932.59" r="5.87"/><circle cx="753.12" cy="793.83" r="4.32"/><circle cx="514.10" cy="792.34" r="9.55"/><circle cx="173.62" cy="964.17" r="13.33"/><circle cx="371.33" cy="864.39" r="11.14"/><circle cx="917.04" cy="661.39" r="5.60"/><circle cx="778.03" cy="684.30" r="4.15"/><circle cx="923.99" cy="660.24" r="5.67"/><circle cx="448.91" cy="434.17" r="11.16"/><circle cx="289.55" cy="270.29" r="13.45"/><circle cx="553.88" cy="542.12" r="9.65"/><circle cx="741.37" cy="432.62" r="6.35"/><circle cx="718.65" cy="593.03" r="4.62"/><circle cx="724.56" cy="551.31" r="5.07"/><circle cx="923.46" cy="290.32" r="12.22"/><circle cx="787.20" cy="542.52" r="9.32"/><circle cx="958.38" cy="225.70" r="12.96"/><circle cx="541.82" cy="619.22" r="5.63"/><circle cx="473.32" cy="586.57" r="6.46"/><circle cx="625.98" cy="659.32" r="4.60"/><circle cx="981.82" cy="750.32" r="10.49"/><circle cx="975.53" cy="749.10" r="10.43"/><circle cx="1301.05" cy="812.16" r="13.82"/><circle cx="532.33" cy="881.24" r="6.65"/><circle cx="574.54" cy="835.83" r="5.95"/><circle cx="647.23" cy="757.60" r="4.74"/><circle cx="723.71" cy="870.69" r="9.46"/><circle cx="754.75" cy="1144.97" r="12.31"/><circle cx="764.35" cy="1229.84" r="13.20"/><circle cx="760.40" cy="795.46" r="5.27"/><circle cx="840.10" cy="935.28" r="7.14"/><circle cx="774.02" cy="819.36" r="5.59"/><circle cx="513.85" cy="780.67" r="9.87"/><circle cx="170.93" cy="932.45" r="13.79"/><circle cx="367.53" cy="845.43" r="11.54"/><circle cx="780.33" cy="679.91" r="5.02"/><circle cx="931.40" cy="647.07" r="6.87"/><circle cx="922.81" cy="648.94" r="6.76"/><circle cx="318.41" cy="257.52" r="13.92"/><circle cx="468.16" cy="428.00" r="11.53"/><circle cx="563.78" cy="536.86" r="10.00"/><circle cx="717.81" cy="543.47" r="6.11"/><circle cx="728.95" cy="420.07" r="7.64"/><circle cx="713.73" cy="588.63" r="5.56"/><circle cx="940.01" cy="308.11" r="12.65"/><circle cx="975.81" cy="249.19" r="13.39"/><circle cx="792.96" cy="550.11" r="9.63"/><circle cx="620.33" cy="661.71" r="5.51"/><circle cx="457.26" cy="593.92" r="7.74"/><circle cx="531.64" cy="624.84" r="6.72"/><circle cx="974.71" cy="763.33" r="10.86"/><circle cx="965.58" cy="761.07" r="10.76"/><circle cx="1282.44" cy="839.29" r="14.28"/><circle cx="534.90" cy="898.05" r="7.90"/><circle cx="575.66" cy="849.48" r="7.09"/><circle cx="648.16" cy="763.06" r="5.63"/><circle cx="714.66" cy="868.18" r="9.78"/><circle cx="731.27" cy="1135.71" r="12.71"/><circle cx="736.64" cy="1222.18" r="13.65"/><circle cx="768.59" cy="797.55" r="6.24"/><circle cx="783.29" cy="820.55" r="6.60"/><circle cx="859.03" cy="939.06" r="8.45"/><circle cx="366.34" cy="825.93" r="11.94"/><circle cx="515.07" cy="768.92" r="10.19"/><circle cx="172.41" cy="900.27" r="14.23"/><circle cx="929.79" cy="635.30" r="7.94"/><circle cx="940.17" cy="632.48" r="8.09"/><circle cx="783.08" cy="675.07" r="5.90"/><circle cx="574.41" cy="532.95" r="10.33"/><circle cx="488.27" cy="424.23" r="11.88"/><circle cx="349.06" cy="248.55" r="14.38"/><circle cx="715.45" cy="405.64" r="8.93"/><circle cx="710.38" cy="534.48" r="7.16"/><circle cx="708.45" cy="583.54" r="6.49"/><circle cx="797.77" cy="558.46" r="9.94"/><circle cx="990.33" cy="275.01" r="13.80"/><circle cx="954.21" cy="328.17" r="13.08"/><circle cx="439.12" cy="601.80" r="9.01"/><circle cx="613.94" cy="664.30" r="6.42"/><circle cx="520.14" cy="630.77" r="7.81"/><circle cx="965.84" cy="775.40" r="11.22"/><circle cx="954.13" cy="771.87" r="11.08"/><circle cx="1260.25" cy="864.12" r="14.73"/><circle cx="537.42" cy="916.83" r="9.14"/><circle cx="576.75" cy="864.80" r="8.21"/><circle cx="649.07" cy="769.15" r="6.51"/><circle cx="705.91" cy="864.49" r="10.08"/><circle cx="708.84" cy="1123.51" r="13.07"/><circle cx="709.83" cy="1210.87" r="14.08"/><circle cx="793.51" cy="822.05" r="7.58"/><circle cx="777.75" cy="799.93" r="7.19"/><circle cx="880.09" cy="943.47" r="9.73"/><circle cx="517.70" cy="757.28" r="10.48"/><circle cx="177.92" cy="868.14" r="14.65"/><circle cx="367.72" cy="806.21" r="12.32"/><circle cx="937.66" cy="620.27" r="9.09"/><circle cx="786.17" cy="669.69" r="6.76"/><circle cx="949.98" cy="616.25" r="9.28"/><circle cx="508.89" cy="422.85" r="12.20"/><circle cx="585.57" cy="530.40" r="10.64"/><circle cx="380.97" cy="243.44" r="14.80"/><circle cx="700.52" cy="389.62" r="10.18"/><circle cx="702.05" cy="524.49" r="8.18"/><circle cx="702.65" cy="577.88" r="7.39"/><circle cx="965.89" cy="350.12" r="13.46"/><circle cx="1001.77" cy="302.67" r="14.17"/><circle cx="801.60" cy="567.41" r="10.21"/><circle cx="606.86" cy="667.23" r="7.29"/><circle cx="419.07" cy="610.64" r="10.23"/><circle cx="507.47" cy="637.28" r="8.84"/><circle cx="955.38" cy="786.37" r="11.54"/><circle cx="941.41" cy="781.38" r="11.36"/><circle cx="1234.94" cy="886.32" r="15.12"/><circle cx="540.30" cy="937.47" r="10.32"/><circle cx="578.16" cy="881.75" r="9.29"/><circle cx="650.09" cy="775.86" r="7.35"/><circle cx="697.58" cy="859.72" r="10.35"/><circle cx="687.78" cy="1108.68" r="13.39"/><circle cx="684.34" cy="1196.19" r="14.46"/><circle cx="804.72" cy="823.61" r="8.51"/><circle cx="903.32" cy="948.06" r="10.94"/><circle cx="787.92" cy="802.41" r="8.10"/><circle cx="187.24" cy="836.57" r="15.00"/><circle cx="371.58" cy="786.60" r="12.64"/><circle cx="521.65" cy="745.93" r="10.73"/><circle cx="960.47" cy="598.19" r="10.40"/><circle cx="789.49" cy="663.73" r="7.57"/><circle cx="946.07" cy="603.71" r="10.16"/><circle cx="529.68" cy="423.77" r="12.47"/><circle cx="597.09" cy="529.23" r="10.91"/><circle cx="413.58" cy="242.13" r="15.16"/><circle cx="683.88" cy="372.40" r="11.35"/><circle cx="692.65" cy="513.72" r="9.14"/><circle cx="696.26" cy="571.80" r="8.23"/><circle cx="974.93" cy="373.57" r="13.78"/><circle cx="1010.08" cy="331.67" r="14.47"/><circle cx="804.42" cy="576.80" r="10.43"/><circle cx="599.18" cy="670.62" r="8.10"/><circle cx="397.37" cy="620.81" r="11.37"/><circle cx="493.84" cy="644.62" r="9.81"/><circle cx="943.56" cy="796.10" r="11.80"/><circle cx="927.66" cy="789.49" r="11.58"/><circle cx="1207.01" cy="905.64" r="15.44"/><circle cx="543.98" cy="959.83" r="11.40"/><circle cx="580.20" cy="900.24" r="10.30"/><circle cx="651.37" cy="783.11" r="8.13"/><circle cx="689.79" cy="853.97" r="10.56"/><circle cx="668.35" cy="1091.54" r="13.64"/><circle cx="660.50" cy="1178.49" r="14.76"/><circle cx="928.70" cy="952.31" r="12.06"/><circle cx="799.11" cy="804.78" r="8.94"/><circle cx="816.86" cy="824.99" r="9.36"/><circle cx="377.78" cy="767.41" r="12.90"/><circle cx="200.07" cy="806.03" r="15.27"/><circle cx="526.80" cy="735.02" r="10.91"/><circle cx="954.60" cy="585.58" r="11.14"/><circle cx="971.22" cy="578.22" r="11.43"/><circle cx="792.88" cy="657.16" r="8.31"/><circle cx="550.33" cy="426.89" r="12.66"/><circle cx="446.37" cy="244.50" r="15.42"/><circle cx="608.76" cy="529.41" r="11.11"/><circle cx="665.29" cy="354.42" r="12.40"/><circle cx="682.03" cy="502.38" r="10.01"/><circle cx="689.18" cy="565.50" r="8.99"/><circle cx="981.30" cy="398.07" r="14.02"/><circle cx="1015.28" cy="361.51" r="14.68"/><circle cx="806.24" cy="586.47" r="10.59"/><circle cx="374.36" cy="632.64" r="12.40"/><circle cx="590.99" cy="674.61" r="8.84"/><circle cx="479.50" cy="653.01" r="10.67"/><circle cx="930.60" cy="804.48" r="11.99"/><circle cx="913.16" cy="796.17" r="11.73"/><circle cx="1177.03" cy="921.91" r="15.66"/><circle cx="548.85" cy="983.65" r="12.37"/><circle cx="583.19" cy="920.09" r="11.20"/><circle cx="653.03" cy="790.84" r="8.82"/><circle cx="682.63" cy="847.39" r="10.70"/><circle cx="650.76" cy="1072.48" r="13.79"/><circle cx="638.62" cy="1158.19" r="14.96"/><circle cx="811.28" cy="806.83" r="9.69"/><circle cx="956.10" cy="955.75" r="13.06"/><circle cx="829.87" cy="825.94" r="10.12"/><circle cx="386.11" cy="748.90" r="13.06"/><circle cx="532.99" cy="724.69" r="11.02"/><circle cx="216.03" cy="776.93" r="15.43"/><circle cx="796.22" cy="649.96" r="8.97"/><circle cx="981.81" cy="556.30" r="12.35"/><circle cx="962.86" cy="565.86" r="12.00"/><circle cx="478.82" cy="250.32" r="15.58"/><circle cx="620.40" cy="530.86" r="11.22"/><circle cx="570.52" cy="432.02" r="12.76"/><circle cx="644.61" cy="336.17" r="13.33"/><circle cx="670.09" cy="490.75" r="10.78"/><circle cx="681.36" cy="559.14" r="9.65"/><circle cx="985.05" cy="423.21" r="14.14"/><circle cx="1017.47" cy="391.69" r="14.78"/><circle cx="807.08" cy="596.27" r="10.67"/><circle cx="464.74" cy="662.62" r="11.41"/><circle cx="350.44" cy="646.43" r="13.29"/><circle cx="582.44" cy="679.29" r="9.48"/><circle cx="916.76" cy="811.46" r="12.08"/><circle cx="1145.55" cy="935.07" r="15.75"/><circle cx="898.16" cy="801.40" r="11.78"/><circle cx="555.27" cy="1008.61" r="13.20"/><circle cx="587.44" cy="941.09" r="11.98"/><circle cx="655.19" cy="798.93" r="9.42"/><circle cx="676.18" cy="840.11" r="10.75"/><circle cx="618.92" cy="1135.73" r="15.04"/><circle cx="635.15" cy="1051.90" r="13.83"/><circle cx="985.30" cy="957.89" r="13.91"/><circle cx="824.36" cy="808.34" r="10.33"/><circle cx="843.62" cy="826.23" r="10.76"/><circle cx="396.32" cy="731.32" r="13.12"/><circle cx="234.69" cy="749.61" r="15.46"/><circle cx="540.08" cy="715.05" r="11.04"/><circle cx="991.78" cy="532.47" r="13.13"/><circle cx="970.44" cy="544.64" r="12.73"/><circle cx="799.35" cy="642.15" r="9.53"/><circle cx="590.00" cy="438.95" r="12.75"/><circle cx="631.85" cy="533.49" r="11.25"/><circle cx="510.47" cy="259.28" r="15.60"/><circle cx="621.77" cy="318.17" r="14.11"/><circle cx="656.75" cy="479.12" r="11.43"/><circle cx="672.79" cy="552.93" r="10.21"/><circle cx="986.28" cy="448.56" r="14.15"/><circle cx="807.00" cy="606.03" r="10.66"/><circle cx="1016.82" cy="421.73" r="14.75"/><circle cx="573.67" cy="684.74" r="10.02"/><circle cx="326.09" cy="662.40" r="14.05"/><circle cx="449.88" cy="673.57" r="12.03"/><circle cx="902.32" cy="817.01" r="12.07"/><circle cx="1113.16" cy="945.13" r="15.71"/><circle cx="882.92" cy="805.23" r="11.73"/><circle cx="593.22" cy="962.96" r="12.63"/><circle cx="563.53" cy="1034.35" r="13.88"/><circle cx="657.94" cy="807.27" r="9.91"/><circle cx="670.48" cy="832.30" r="10.71"/><circle cx="621.62" cy="1030.24" r="13.74"/><circle cx="601.53" cy="1111.60" r="14.99"/><circle cx="1016.02" cy="958.27" r="14.60"/><circle cx="838.22" cy="809.11" r="10.86"/><circle cx="857.94" cy="825.65" r="11.28"/><circle cx="408.14" cy="714.87" r="13.05"/><circle cx="255.56" cy="724.34" r="15.34"/><circle cx="547.88" cy="706.19" r="10.95"/><circle cx="976.92" cy="522.06" r="13.31"/><circle cx="1000.68" cy="506.87" r="13.76"/><circle cx="802.13" cy="633.78" r="9.98"/><circle cx="608.52" cy="447.41" r="12.62"/><circle cx="642.93" cy="537.17" r="11.16"/><circle cx="540.90" cy="271.01" r="15.47"/><circle cx="596.79" cy="300.96" r="14.73"/><circle cx="642.01" cy="467.81" r="11.96"/><circle cx="663.50" cy="547.07" r="10.64"/><circle cx="1013.59" cy="451.19" r="14.57"/><circle cx="985.16" cy="473.72" r="14.02"/><circle cx="806.08" cy="615.62" r="10.54"/><circle cx="301.80" cy="680.67" r="14.64"/><circle cx="564.87" cy="691.03" r="10.44"/><circle cx="435.26" cy="685.93" r="12.51"/><circle cx="887.53" cy="821.17" r="11.93"/><circle cx="867.70" cy="807.71" r="11.56"/><circle cx="1080.42" cy="952.21" r="15.50"/><circle cx="600.73" cy="985.35" r="13.15"/><circle cx="573.90" cy="1060.41" r="14.41"/><circle cx="661.38" cy="815.72" r="10.29"/><circle cx="665.54" cy="824.11" r="10.55"/><circle cx="610.16" cy="1007.92" r="13.51"/><circle cx="586.53" cy="1086.33" r="14.78"/><circle cx="1047.87" cy="956.49" r="15.14"/><circle cx="852.73" cy="808.95" r="11.27"/><circle cx="872.65" cy="824.02" r="11.67"/><circle cx="278.11" cy="701.33" r="15.07"/><circle cx="556.21" cy="698.18" r="10.76"/><circle cx="421.23" cy="699.71" r="12.85"/><circle cx="981.95" cy="498.33" r="13.74"/><circle cx="1008.09" cy="479.69" r="14.24"/><circle cx="804.42" cy="624.90" r="10.32"/><circle cx="625.91" cy="457.14" r="12.35"/><circle cx="653.51" cy="541.75" r="10.96"/><circle cx="569.77" cy="285.06" r="15.18"/></g><g fill="#111111" style="mix-blend-mode:multiply"><circle cx="576.60" cy="322.70" r="6.32"/><circle cx="660.13" cy="578.73" r="4.51"/><circle cx="604.13" cy="407.10" r="5.72"/><circle cx="854.79" cy="594.35" r="4.90"/><circle cx="1062.39" cy="446.33" r="6.61"/><circle cx="881.44" cy="575.35" r="5.12"/><circle cx="287.97" cy="708.68" r="6.40"/><circle cx="419.71" cy="707.19" r="5.50"/><circle cx="559.40" cy="705.61" r="4.56"/><circle cx="802.00" cy="780.37" r="4.50"/><circle cx="984.51" cy="918.36" r="6.02"/><circle cx="1005.26" cy="934.05" r="6.19"/><circle cx="578.69" cy="1109.88" r="6.47"/><circle cx="631.59" cy="934.33" r="5.22"/><circle cx="654.16" cy="859.44" r="4.69"/><circle cx="615.07" cy="944.34" r="5.36"/><circle cx="643.63" cy="864.46" r="4.80"/><circle cx="550.52" cy="1124.91" r="6.63"/><circle cx="998.90" cy="906.37" r="6.03"/><circle cx="800.09" cy="771.31" r="4.38"/><circle cx="980.37" cy="893.78" r="5.87"/><circle cx="405.90" cy="692.39" r="5.63"/><circle cx="264.93" cy="686.84" r="6.56"/><circle cx="551.06" cy="698.10" r="4.67"/><circle cx="1030.10" cy="443.23" r="6.43"/><circle cx="866.30" cy="573.02" r="4.99"/><circle cx="840.30" cy="593.62" r="4.76"/><circle cx="614.51" cy="384.92" r="5.86"/><circle cx="664.78" cy="570.37" r="4.61"/><circle cx="590.64" cy="296.83" r="6.46"/><circle cx="564.92" cy="348.99" r="6.15"/><circle cx="595.72" cy="429.33" r="5.56"/><circle cx="656.24" cy="587.23" r="4.39"/><circle cx="1095.11" cy="452.10" r="6.76"/><circle cx="869.62" cy="596.22" r="5.02"/><circle cx="896.60" cy="578.98" r="5.23"/><circle cx="567.98" cy="712.26" r="4.43"/><circle cx="434.32" cy="720.56" r="5.36"/><circle cx="311.89" cy="728.16" r="6.21"/><circle cx="986.65" cy="943.65" r="6.14"/><circle cx="803.23" cy="789.77" r="4.60"/><circle cx="1009.53" cy="962.85" r="6.34"/><circle cx="646.81" cy="923.52" r="5.06"/><circle cx="664.03" cy="853.76" r="4.56"/><circle cx="604.92" cy="1093.24" r="6.28"/><circle cx="597.37" cy="953.26" r="5.48"/><circle cx="632.55" cy="868.63" r="4.90"/><circle cx="520.63" cy="1137.82" r="6.77"/><circle cx="974.55" cy="870.23" r="5.70"/><circle cx="797.60" cy="762.70" r="4.25"/><circle cx="990.83" cy="880.12" r="5.84"/><circle cx="243.32" cy="662.70" r="6.70"/><circle cx="543.16" cy="689.76" r="4.78"/><circle cx="393.24" cy="676.23" r="5.74"/><circle cx="998.72" cy="442.49" r="6.23"/><circle cx="826.35" cy="593.90" r="4.61"/><circle cx="851.44" cy="571.86" r="4.85"/><circle cx="626.93" cy="363.20" r="5.99"/><circle cx="670.20" cy="562.32" r="4.70"/><circle cx="607.08" cy="271.89" r="6.59"/><circle cx="589.12" cy="451.23" r="5.37"/><circle cx="555.46" cy="375.19" r="5.96"/><circle cx="653.07" cy="595.72" r="4.25"/><circle cx="884.57" cy="599.37" r="5.13"/><circle cx="911.54" cy="584.00" r="5.32"/><circle cx="1127.73" cy="460.78" r="6.89"/><circle cx="336.17" cy="745.29" r="6.00"/><circle cx="449.36" cy="732.48" r="5.19"/><circle cx="576.63" cy="718.07" r="4.28"/><circle cx="803.66" cy="799.40" r="4.69"/><circle cx="986.52" cy="969.31" r="6.25"/><circle cx="1011.38" cy="992.41" r="6.47"/><circle cx="629.03" cy="1075.51" r="6.07"/><circle cx="673.18" cy="847.61" r="4.40"/><circle cx="660.66" cy="912.23" r="4.88"/><circle cx="489.35" cy="1148.15" r="6.89"/><circle cx="578.63" cy="960.79" r="5.60"/><circle cx="621.04" cy="871.79" r="4.98"/><circle cx="967.42" cy="847.94" r="5.51"/><circle cx="981.46" cy="855.53" r="5.62"/><circle cx="794.69" cy="754.62" r="4.10"/><circle cx="382.06" cy="658.84" r="5.83"/><circle cx="535.88" cy="680.62" r="4.87"/><circle cx="223.67" cy="636.41" r="6.83"/><circle cx="837.06" cy="571.70" r="4.67"/><circle cx="968.65" cy="443.74" r="6.00"/><circle cx="813.09" cy="595.00" r="4.43"/><circle cx="641.39" cy="342.36" r="6.11"/><circle cx="676.40" cy="554.74" r="4.78"/><circle cx="625.91" cy="248.39" r="6.70"/><circle cx="548.01" cy="400.86" r="5.73"/><circle cx="650.55" cy="604.04" r="4.09"/><circle cx="584.14" cy="472.44" r="5.15"/><circle cx="925.97" cy="590.46" r="5.41"/><circle cx="899.40" cy="603.87" r="5.22"/><circle cx="1159.70" cy="472.51" r="7.01"/><circle cx="360.27" cy="760.16" r="5.75"/><circle cx="585.16" cy="723.09" r="4.10"/><circle cx="464.49" cy="742.98" r="4.99"/><circle cx="803.21" cy="809.11" r="4.77"/><circle cx="983.92" cy="994.95" r="6.35"/><circle cx="1010.53" cy="1022.31" r="6.58"/><circle cx="673.14" cy="900.77" r="4.66"/><circle cx="650.98" cy="1057.24" r="5.82"/><circle cx="681.57" cy="841.19" r="4.23"/><circle cx="559.08" cy="966.66" r="5.70"/><circle cx="609.25" cy="873.81" r="5.06"/><circle cx="457.06" cy="1155.48" r="7.00"/><circle cx="971.24" cy="832.78" r="5.37"/><circle cx="959.36" cy="827.12" r="5.28"/><circle cx="791.49" cy="747.12" r="3.92"/><circle cx="529.40" cy="670.76" r="4.95"/><circle cx="372.67" cy="640.40" r="5.92"/><circle cx="206.49" cy="608.21" r="6.94"/><circle cx="940.24" cy="446.53" r="5.73"/><circle cx="823.35" cy="572.33" r="4.47"/><circle cx="800.67" cy="596.74" r="4.23"/><circle cx="683.32" cy="547.80" r="4.85"/><circle cx="647.00" cy="226.84" r="6.80"/><circle cx="657.86" cy="322.82" r="6.22"/><circle cx="542.30" cy="425.57" r="5.47"/><circle cx="648.59" cy="612.06" r="3.90"/><circle cx="580.55" cy="492.68" r="4.90"/><circle cx="913.86" cy="609.78" r="5.31"/><circle cx="939.64" cy="598.37" r="5.48"/><circle cx="1190.44" cy="487.36" r="7.12"/><circle cx="383.72" cy="772.96" r="5.47"/><circle cx="593.41" cy="727.38" r="3.90"/><circle cx="479.36" cy="752.17" r="4.75"/><circle cx="801.82" cy="818.78" r="4.84"/><circle cx="978.68" cy="1020.14" r="6.44"/><circle cx="1006.76" cy="1052.10" r="6.69"/><circle cx="684.26" cy="889.44" r="4.42"/><circle cx="689.20" cy="834.71" r="4.02"/><circle cx="670.77" cy="1038.97" r="5.52"/><circle cx="597.35" cy="874.56" r="5.13"/><circle cx="424.22" cy="1159.49" r="7.10"/><circle cx="538.97" cy="970.65" r="5.79"/><circle cx="960.61" cy="811.94" r="5.08"/><circle cx="950.80" cy="807.86" r="5.00"/><circle cx="788.14" cy="740.23" r="3.71"/><circle cx="192.24" cy="578.41" r="7.05"/><circle cx="365.34" cy="621.14" r="6.00"/><circle cx="523.88" cy="660.28" r="5.03"/><circle cx="913.74" cy="450.42" r="5.41"/><circle cx="810.46" cy="573.53" r="4.23"/><circle cx="789.17" cy="598.91" r="3.99"/><circle cx="676.22" cy="304.99" r="6.32"/><circle cx="670.18" cy="207.72" r="6.89"/><circle cx="690.92" cy="541.64" r="4.92"/><circle cx="578.07" cy="511.67" r="4.62"/><circle cx="537.99" cy="448.97" r="5.16"/><circle cx="647.09" cy="619.66" r="3.68"/><circle cx="927.69" cy="617.11" r="5.40"/><circle cx="952.26" cy="607.69" r="5.55"/><circle cx="1219.39" cy="505.30" r="7.23"/><circle cx="601.25" cy="731.04" r="3.66"/><circle cx="493.66" cy="760.20" r="4.48"/><circle cx="406.08" cy="783.94" r="5.14"/><circle cx="799.43" cy="828.22" r="4.91"/><circle cx="970.76" cy="1044.45" r="6.52"/><circle cx="999.94" cy="1081.28" r="6.80"/><circle cx="688.52" cy="1021.19" r="5.18"/><circle cx="696.11" cy="828.37" r="3.77"/><circle cx="694.13" cy="878.52" r="4.14"/><circle cx="585.53" cy="873.98" r="5.19"/><circle cx="391.31" cy="1159.89" r="7.20"/><circle cx="518.57" cy="972.55" r="5.89"/><circle cx="942.15" cy="790.21" r="4.69"/><circle cx="784.80" cy="733.96" r="3.47"/><circle cx="950.02" cy="793.03" r="4.75"/><circle cx="181.31" cy="547.40" r="7.15"/><circle cx="360.30" cy="601.33" r="6.07"/><circle cx="519.49" cy="649.30" r="5.11"/><circle cx="798.49" cy="575.06" r="3.95"/><circle cx="778.65" cy="601.30" r="3.71"/><circle cx="889.34" cy="454.90" r="5.04"/><circle cx="696.30" cy="289.27" r="6.41"/><circle cx="699.10" cy="536.41" r="4.99"/><circle cx="695.19" cy="191.46" r="6.98"/><circle cx="645.92" cy="626.74" r="3.42"/><circle cx="534.71" cy="470.77" r="4.80"/><circle cx="576.39" cy="529.23" r="4.29"/><circle cx="940.63" cy="625.82" r="5.48"/><circle cx="963.59" cy="618.33" r="5.62"/><circle cx="1245.97" cy="526.20" r="7.33"/><circle cx="608.55" cy="734.16" r="3.39"/><circle cx="507.12" cy="767.25" r="4.15"/><circle cx="426.98" cy="793.40" r="4.76"/><circle cx="796.04" cy="837.30" r="4.98"/><circle cx="960.14" cy="1067.45" r="6.60"/><circle cx="990.02" cy="1109.37" r="6.90"/><circle cx="702.86" cy="868.26" r="3.82"/><circle cx="704.41" cy="1004.38" r="4.79"/><circle cx="702.34" cy="822.35" r="3.49"/><circle cx="498.19" cy="972.24" r="5.98"/><circle cx="573.98" cy="872.00" r="5.26"/><circle cx="358.86" cy="1156.52" r="7.30"/><circle cx="939.87" cy="775.98" r="4.36"/><circle cx="933.81" cy="774.16" r="4.32"/><circle cx="781.60" cy="728.29" r="3.19"/><circle cx="516.34" cy="637.98" r="5.18"/><circle cx="357.72" cy="581.27" r="6.14"/><circle cx="174.05" cy="515.61" r="7.26"/><circle cx="867.10" cy="459.48" r="4.62"/><circle cx="787.50" cy="576.66" r="3.63"/><circle cx="769.13" cy="603.71" r="3.40"/><circle cx="717.84" cy="276.01" r="6.51"/><circle cx="721.68" cy="178.44" r="7.07"/><circle cx="707.76" cy="532.23" r="5.05"/><circle cx="532.04" cy="490.76" r="4.39"/><circle cx="644.94" cy="633.24" r="3.13"/><circle cx="575.20" cy="545.23" r="3.91"/><circle cx="952.44" cy="635.85" r="5.57"/><circle cx="973.40" cy="630.16" r="5.69"/><circle cx="1269.65" cy="549.86" r="7.43"/><circle cx="519.51" cy="773.57" r="3.79"/><circle cx="615.20" cy="736.89" r="3.08"/><circle cx="446.11" cy="801.70" r="4.33"/><circle cx="791.66" cy="845.84" r="5.05"/><circle cx="946.90" cy="1088.72" r="6.69"/><circle cx="977.03" cy="1135.85" r="7.00"/><circle cx="708.01" cy="816.83" r="3.17"/><circle cx="718.69" cy="988.96" r="4.34"/><circle cx="710.62" cy="858.87" r="3.45"/><circle cx="562.90" cy="868.61" r="5.33"/><circle cx="327.42" cy="1149.29" r="7.40"/><circle cx="478.16" cy="969.61" r="6.07"/><circle cx="778.68" cy="723.17" r="2.88"/><circle cx="926.18" cy="759.59" r="3.90"/><circle cx="930.56" cy="760.67" r="3.93"/><circle cx="357.73" cy="561.28" r="6.22"/><circle cx="514.53" cy="626.47" r="5.26"/><circle cx="170.72" cy="483.53" r="7.36"/><circle cx="847.03" cy="463.68" r="4.15"/><circle cx="777.51" cy="578.09" r="3.27"/><circle cx="760.59" cy="605.94" r="3.05"/><circle cx="740.57" cy="265.51" r="6.62"/><circle cx="716.77" cy="529.20" r="5.13"/><circle cx="749.28" cy="168.99" r="7.16"/><circle cx="529.55" cy="508.81" r="3.93"/><circle cx="644.01" cy="639.12" r="2.80"/><circle cx="574.16" cy="559.59" r="3.49"/><circle cx="962.88" cy="647.08" r="5.66"/><circle cx="981.49" cy="643.03" r="5.76"/><circle cx="1289.96" cy="575.99" r="7.54"/><circle cx="621.16" cy="739.34" r="2.74"/><circle cx="463.25" cy="809.23" r="3.85"/><circle cx="530.63" cy="779.41" r="3.38"/><circle cx="786.32" cy="853.70" r="5.13"/><circle cx="931.19" cy="1107.86" r="6.78"/><circle cx="961.05" cy="1160.25" r="7.12"/><circle cx="731.70" cy="975.27" r="3.85"/><circle cx="713.21" cy="811.94" r="2.81"/><circle cx="717.58" cy="850.53" r="3.05"/><circle cx="552.47" cy="863.84" r="5.40"/><circle cx="458.82" cy="964.62" r="6.17"/><circle cx="297.53" cy="1138.21" r="7.51"/><circle cx="922.44" cy="746.90" r="3.46"/><circle cx="919.61" cy="746.35" r="3.45"/><circle cx="776.15" cy="718.56" r="2.54"/><circle cx="514.15" cy="614.96" r="5.35"/><circle cx="360.38" cy="541.68" r="6.31"/><circle cx="171.48" cy="451.67" r="7.48"/><circle cx="829.03" cy="467.04" r="3.64"/><circle cx="768.49" cy="579.09" r="2.87"/><circle cx="752.97" cy="607.80" r="2.67"/><circle cx="764.15" cy="258.03" r="6.73"/><circle cx="726.01" cy="527.40" r="5.20"/><circle cx="777.56" cy="163.35" r="7.27"/><circle cx="642.99" cy="644.34" r="2.45"/><circle cx="526.81" cy="524.87" r="3.43"/><circle cx="572.95" cy="572.32" r="3.04"/><circle cx="971.73" cy="659.38" r="5.76"/><circle cx="987.68" cy="656.75" r="5.85"/><circle cx="1306.47" cy="604.20" r="7.67"/><circle cx="626.36" cy="741.67" r="2.38"/><circle cx="540.36" cy="785.07" r="2.94"/><circle cx="478.26" cy="816.41" r="3.34"/><circle cx="780.09" cy="860.72" r="5.22"/><circle cx="913.22" cy="1124.50" r="6.88"/><circle cx="942.29" cy="1182.11" r="7.24"/><circle cx="723.97" cy="843.37" r="2.63"/><circle cx="743.79" cy="963.60" r="3.32"/><circle cx="718.11" cy="807.81" r="2.43"/><circle cx="542.89" cy="857.74" r="5.49"/><circle cx="269.73" cy="1123.37" r="7.63"/><circle cx="440.51" cy="957.30" r="6.29"/><circle cx="915.78" cy="734.41" r="2.97"/><circle cx="914.40" cy="734.22" r="2.96"/><circle cx="774.11" cy="714.35" r="2.18"/><circle cx="365.68" cy="522.83" r="6.41"/><circle cx="515.23" cy="603.63" r="5.45"/><circle cx="176.42" cy="420.57" r="7.62"/><circle cx="812.92" cy="469.13" r="3.11"/><circle cx="760.36" cy="579.44" r="2.46"/><circle cx="746.21" cy="609.14" r="2.28"/><circle cx="788.21" cy="253.78" r="6.87"/><circle cx="735.31" cy="526.88" r="5.30"/><circle cx="806.06" cy="161.67" r="7.40"/><circle cx="571.28" cy="583.46" r="2.59"/><circle cx="523.41" cy="538.98" r="2.93"/><circle cx="641.74" cy="648.93" r="2.08"/><circle cx="978.82" cy="672.56" r="5.88"/><circle cx="991.84" cy="671.09" r="5.95"/><circle cx="1318.84" cy="634.08" r="7.81"/><circle cx="630.81" cy="744.01" r="2.02"/><circle cx="491.08" cy="823.65" r="2.83"/><circle cx="548.64" cy="790.84" r="2.49"/><circle cx="773.05" cy="866.78" r="5.32"/><circle cx="893.25" cy="1138.33" r="7.01"/><circle cx="921.00" cy="1201.02" r="7.39"/><circle cx="730.01" cy="837.47" r="2.22"/><circle cx="755.37" cy="954.13" r="2.81"/><circle cx="722.85" cy="804.52" r="2.06"/><circle cx="534.33" cy="850.40" r="5.59"/><circle cx="244.50" cy="1104.97" r="7.78"/><circle cx="423.54" cy="947.71" r="6.43"/><circle cx="910.81" cy="722.93" r="2.50"/><circle cx="772.64" cy="710.47" r="1.84"/><circle cx="910.81" cy="722.93" r="2.50"/><circle cx="517.80" cy="592.67" r="5.57"/><circle cx="373.57" cy="505.03" r="6.53"/><circle cx="185.52" cy="390.76" r="7.79"/><circle cx="798.46" cy="469.60" r="2.62"/><circle cx="753.00" cy="578.93" r="2.08"/><circle cx="740.16" cy="609.80" r="1.92"/><circle cx="812.36" cy="252.86" r="7.03"/><circle cx="744.53" cy="527.66" r="5.41"/><circle cx="834.29" cy="164.04" r="7.55"/><circle cx="568.85" cy="593.13" r="2.18"/><circle cx="518.93" cy="551.25" r="2.47"/><circle cx="640.12" cy="652.93" r="1.76"/><circle cx="984.00" cy="686.43" r="6.02"/><circle cx="993.89" cy="685.81" r="6.07"/><circle cx="1326.81" cy="665.14" r="7.99"/><circle cx="501.74" cy="831.36" r="2.39"/><circle cx="634.51" cy="746.50" r="1.70"/><circle cx="555.45" cy="797.03" r="2.11"/><circle cx="765.30" cy="871.76" r="5.45"/><circle cx="871.61" cy="1149.09" r="7.16"/><circle cx="897.49" cy="1216.61" r="7.57"/><circle cx="727.60" cy="802.13" r="1.75"/><circle cx="766.85" cy="946.95" r="2.39"/><circle cx="735.93" cy="832.85" r="1.88"/><circle cx="408.22" cy="935.99" r="6.59"/><circle cx="526.93" cy="841.93" r="5.72"/><circle cx="222.31" cy="1083.29" r="7.96"/><circle cx="907.68" cy="712.13" r="2.14"/><circle cx="909.01" cy="712.19" r="2.14"/><circle cx="771.81" cy="706.79" r="1.57"/><circle cx="521.81" cy="582.27" r="5.71"/><circle cx="383.93" cy="488.61" r="6.68"/><circle cx="198.66" cy="362.75" r="7.98"/><circle cx="785.32" cy="468.15" r="2.27"/><circle cx="746.27" cy="577.38" r="1.80"/><circle cx="734.72" cy="609.69" r="1.66"/><circle cx="836.20" cy="255.35" r="7.21"/><circle cx="753.51" cy="529.74" r="5.54"/><circle cx="861.78" cy="170.45" r="7.73"/><circle cx="513.04" cy="561.89" r="2.17"/><circle cx="638.02" cy="656.38" r="1.54"/><circle cx="565.44" cy="601.51" r="1.91"/><circle cx="1330.20" cy="696.86" r="8.19"/><circle cx="993.78" cy="700.68" r="6.22"/><circle cx="987.15" cy="700.75" r="6.18"/><circle cx="637.51" cy="749.27" r="1.52"/><circle cx="560.86" cy="803.92" r="1.89"/><circle cx="510.36" cy="839.92" r="2.14"/><circle cx="848.66" cy="1156.59" r="7.33"/><circle cx="756.98" cy="875.58" r="5.59"/><circle cx="872.15" cy="1228.59" r="7.78"/><circle cx="741.95" cy="829.51" r="1.73"/><circle cx="778.68" cy="942.09" r="2.20"/><circle cx="732.53" cy="800.66" r="1.61"/><circle cx="394.82" cy="922.30" r="6.78"/><circle cx="203.55" cy="1058.68" r="8.17"/><circle cx="520.82" cy="832.47" r="5.87"/><circle cx="771.63" cy="703.20" r="1.51"/><circle cx="909.13" cy="701.64" r="2.06"/><circle cx="906.48" cy="701.67" r="2.05"/><circle cx="527.23" cy="572.61" r="5.88"/><circle cx="396.58" cy="473.84" r="6.86"/><circle cx="215.66" cy="337.04" r="8.21"/><circle cx="773.15" cy="464.57" r="2.29"/><circle cx="739.97" cy="574.67" r="1.82"/><circle cx="729.71" cy="608.73" r="1.67"/><circle cx="762.11" cy="533.08" r="5.70"/><circle cx="859.30" cy="261.21" r="7.43"/><circle cx="888.06" cy="180.79" r="7.94"/><circle cx="635.32" cy="659.38" r="1.64"/><circle cx="560.85" cy="608.79" r="2.02"/><circle cx="505.43" cy="571.14" r="2.30"/><circle cx="988.21" cy="715.30" r="6.37"/><circle cx="991.52" cy="715.43" r="6.39"/><circle cx="1328.95" cy="728.71" r="8.43"/><circle cx="639.88" cy="752.43" r="1.69"/><circle cx="517.14" cy="849.68" r="2.37"/><circle cx="564.98" cy="811.78" r="2.11"/><circle cx="748.21" cy="878.16" r="5.76"/><circle cx="824.79" cy="1160.69" r="7.54"/><circle cx="845.41" cy="1236.75" r="8.02"/><circle cx="748.29" cy="827.36" r="2.00"/><circle cx="791.25" cy="939.46" r="2.55"/><circle cx="737.83" cy="800.07" r="1.87"/><circle cx="516.11" cy="822.18" r="6.04"/><circle cx="188.54" cy="1031.55" r="8.42"/><circle cx="383.59" cy="906.88" r="7.00"/><circle cx="911.21" cy="690.95" r="2.45"/><circle cx="772.13" cy="699.58" r="1.80"/><circle cx="907.20" cy="691.20" r="2.44"/><circle cx="411.31" cy="460.96" r="7.06"/><circle cx="533.96" cy="563.86" r="6.07"/><circle cx="236.22" cy="314.07" r="8.47"/><circle cx="761.55" cy="458.71" r="2.77"/><circle cx="733.91" cy="570.69" r="2.20"/><circle cx="724.97" cy="606.88" r="2.02"/><circle cx="881.29" cy="270.37" r="7.68"/><circle cx="912.67" cy="194.88" r="8.19"/><circle cx="770.17" cy="537.64" r="5.88"/><circle cx="495.86" cy="579.35" r="2.82"/><circle cx="631.95" cy="662.04" r="2.01"/><circle cx="554.93" cy="615.24" r="2.47"/><circle cx="987.15" cy="729.82" r="6.59"/><circle cx="1323.07" cy="760.14" r="8.70"/><circle cx="987.15" cy="729.82" r="6.59"/><circle cx="522.34" cy="860.93" r="2.94"/><circle cx="567.98" cy="820.84" r="2.61"/><circle cx="641.72" cy="756.07" r="2.09"/><circle cx="817.71" cy="1240.95" r="8.29"/><circle cx="739.14" cy="879.46" r="5.96"/><circle cx="800.40" cy="1161.34" r="7.78"/><circle cx="743.64" cy="800.33" r="2.33"/><circle cx="804.96" cy="938.88" r="3.17"/><circle cx="755.14" cy="826.32" r="2.49"/><circle cx="374.71" cy="889.97" r="7.25"/><circle cx="512.85" cy="811.24" r="6.23"/><circle cx="177.51" cy="1002.38" r="8.70"/><circle cx="773.28" cy="695.82" r="2.25"/><circle cx="909.77" cy="680.38" r="3.04"/><circle cx="915.20" cy="679.76" r="3.08"/><circle cx="427.85" cy="450.19" r="7.28"/><circle cx="260.00" cy="294.21" r="8.76"/><circle cx="541.89" cy="556.15" r="6.28"/><circle cx="750.10" cy="450.54" r="3.47"/><circle cx="727.85" cy="565.40" r="2.76"/><circle cx="720.34" cy="604.14" r="2.53"/><circle cx="901.79" cy="282.65" r="7.95"/><circle cx="777.57" cy="543.32" r="6.07"/><circle cx="935.23" cy="212.46" r="8.46"/><circle cx="627.85" cy="664.47" r="2.52"/><circle cx="484.19" cy="586.86" r="3.54"/><circle cx="547.60" cy="621.12" r="3.09"/><circle cx="984.00" cy="744.07" r="6.83"/><circle cx="980.78" cy="743.62" r="6.80"/><circle cx="1312.70" cy="790.62" r="9.00"/><circle cx="526.28" cy="873.90" r="3.67"/><circle cx="570.07" cy="831.31" r="3.27"/><circle cx="643.12" cy="760.28" r="2.61"/><circle cx="789.53" cy="1241.13" r="8.59"/><circle cx="729.92" cy="879.47" r="6.16"/><circle cx="775.92" cy="1158.57" r="8.04"/><circle cx="762.67" cy="826.21" r="3.10"/><circle cx="820.15" cy="940.09" r="3.96"/><circle cx="750.12" cy="801.33" r="2.91"/><circle cx="511.10" cy="799.84" r="6.44"/><circle cx="170.62" cy="971.67" r="8.99"/><circle cx="368.33" cy="871.89" r="7.51"/><circle cx="914.04" cy="668.89" r="3.78"/><circle cx="775.03" cy="691.80" r="2.80"/><circle cx="920.99" cy="667.74" r="3.82"/><circle cx="445.91" cy="441.67" r="7.53"/><circle cx="286.55" cy="277.79" r="9.07"/><circle cx="550.88" cy="549.62" r="6.51"/><circle cx="738.37" cy="440.12" r="4.28"/><circle cx="715.65" cy="600.53" r="3.12"/><circle cx="721.56" cy="558.81" r="3.42"/><circle cx="920.46" cy="297.82" r="8.24"/><circle cx="784.20" cy="550.02" r="6.28"/><circle cx="955.38" cy="233.20" r="8.74"/><circle cx="538.82" cy="626.72" r="3.80"/><circle cx="470.32" cy="594.07" r="4.36"/><circle cx="622.98" cy="666.82" r="3.10"/><circle cx="978.82" cy="757.82" r="7.08"/><circle cx="972.53" cy="756.60" r="7.03"/><circle cx="1298.05" cy="819.66" r="9.32"/><circle cx="529.33" cy="888.74" r="4.49"/><circle cx="571.54" cy="843.33" r="4.01"/><circle cx="644.23" cy="765.10" r="3.20"/><circle cx="720.71" cy="878.19" r="6.38"/><circle cx="751.75" cy="1152.47" r="8.30"/><circle cx="761.35" cy="1237.34" r="8.90"/><circle cx="757.40" cy="802.96" r="3.55"/><circle cx="837.10" cy="942.78" r="4.82"/><circle cx="771.02" cy="826.86" r="3.77"/><circle cx="510.85" cy="788.17" r="6.66"/><circle cx="167.93" cy="939.95" r="9.30"/><circle cx="364.53" cy="852.93" r="7.79"/><circle cx="777.33" cy="687.41" r="3.38"/><circle cx="928.40" cy="654.57" r="4.63"/><circle cx="919.81" cy="656.44" r="4.56"/><circle cx="315.41" cy="265.02" r="9.39"/><circle cx="465.16" cy="435.50" r="7.77"/><circle cx="560.78" cy="544.36" r="6.74"/><circle cx="714.81" cy="550.97" r="4.12"/><circle cx="725.95" cy="427.57" r="5.15"/><circle cx="710.73" cy="596.13" r="3.75"/><circle cx="937.01" cy="315.61" r="8.53"/><circle cx="972.81" cy="256.69" r="9.03"/><circle cx="789.96" cy="557.61" r="6.50"/><circle cx="617.33" cy="669.21" r="3.72"/><circle cx="454.26" cy="601.42" r="5.22"/><circle cx="528.64" cy="632.34" r="4.53"/><circle cx="971.71" cy="770.83" r="7.33"/><circle cx="962.58" cy="768.57" r="7.26"/><circle cx="1279.44" cy="846.79" r="9.63"/><circle cx="531.90" cy="905.55" r="5.33"/><circle cx="572.66" cy="856.98" r="4.78"/><circle cx="645.16" cy="770.56" r="3.80"/><circle cx="711.66" cy="875.68" r="6.60"/><circle cx="728.27" cy="1143.21" r="8.57"/><circle cx="733.64" cy="1229.68" r="9.21"/><circle cx="765.59" cy="805.05" r="4.21"/><circle cx="780.29" cy="828.05" r="4.45"/><circle cx="856.03" cy="946.56" r="5.70"/><circle cx="363.34" cy="833.43" r="8.06"/><circle cx="512.07" cy="776.42" r="6.87"/><circle cx="169.41" cy="907.77" r="9.60"/><circle cx="926.79" cy="642.80" r="5.36"/><circle cx="937.17" cy="639.98" r="5.46"/><circle cx="780.08" cy="682.57" r="3.98"/><circle cx="571.41" cy="540.45" r="6.97"/><circle cx="485.27" cy="431.73" r="8.01"/><circle cx="346.06" cy="256.05" r="9.70"/><circle cx="712.45" cy="413.14" r="6.02"/><circle cx="707.38" cy="541.98" r="4.83"/><circle cx="705.45" cy="591.04" r="4.38"/><circle cx="794.77" cy="565.96" r="6.70"/><circle cx="987.33" cy="282.51" r="9.31"/><circle cx="951.21" cy="335.67" r="8.82"/><circle cx="436.12" cy="609.30" r="6.07"/><circle cx="610.94" cy="671.80" r="4.33"/><circle cx="517.14" cy="638.27" r="5.26"/><circle cx="962.84" cy="782.90" r="7.57"/><circle cx="951.13" cy="779.37" r="7.47"/><circle cx="1257.25" cy="871.62" r="9.93"/><circle cx="534.42" cy="924.33" r="6.16"/><circle cx="573.75" cy="872.30" r="5.54"/><circle cx="646.07" cy="776.65" r="4.39"/><circle cx="702.91" cy="871.99" r="6.80"/><circle cx="705.84" cy="1131.01" r="8.82"/><circle cx="706.83" cy="1218.37" r="9.50"/><circle cx="790.51" cy="829.55" r="5.11"/><circle cx="774.75" cy="807.43" r="4.85"/><circle cx="877.09" cy="950.97" r="6.56"/><circle cx="514.70" cy="764.78" r="7.07"/><circle cx="174.92" cy="875.64" r="9.88"/><circle cx="364.72" cy="813.71" r="8.31"/><circle cx="934.66" cy="627.77" r="6.13"/><circle cx="783.17" cy="677.19" r="4.56"/><circle cx="946.98" cy="623.75" r="6.26"/><circle cx="505.89" cy="430.35" r="8.23"/><circle cx="582.57" cy="537.90" r="7.18"/><circle cx="377.97" cy="250.94" r="9.98"/><circle cx="697.52" cy="397.12" r="6.86"/><circle cx="699.05" cy="531.99" r="5.52"/><circle cx="699.65" cy="585.38" r="4.98"/><circle cx="962.89" cy="357.62" r="9.08"/><circle cx="998.77" cy="310.17" r="9.56"/><circle cx="798.60" cy="574.91" r="6.88"/><circle cx="603.86" cy="674.73" r="4.91"/><circle cx="416.07" cy="618.14" r="6.90"/><circle cx="504.47" cy="644.78" r="5.96"/><circle cx="952.38" cy="793.87" r="7.78"/><circle cx="938.41" cy="788.88" r="7.66"/><circle cx="1231.94" cy="893.82" r="10.20"/><circle cx="537.30" cy="944.97" r="6.96"/><circle cx="575.16" cy="889.25" r="6.27"/><circle cx="647.09" cy="783.36" r="4.96"/><circle cx="694.58" cy="867.22" r="6.98"/><circle cx="684.78" cy="1116.18" r="9.03"/><circle cx="681.34" cy="1203.69" r="9.75"/><circle cx="801.72" cy="831.11" r="5.74"/><circle cx="900.32" cy="955.56" r="7.38"/><circle cx="784.92" cy="809.91" r="5.46"/><circle cx="184.24" cy="844.07" r="10.12"/><circle cx="368.58" cy="794.10" r="8.53"/><circle cx="518.65" cy="753.43" r="7.23"/><circle cx="957.47" cy="605.69" r="7.02"/><circle cx="786.49" cy="671.23" r="5.11"/><circle cx="943.07" cy="611.21" r="6.86"/><circle cx="526.68" cy="431.27" r="8.41"/><circle cx="594.09" cy="536.73" r="7.36"/><circle cx="410.58" cy="249.63" r="10.22"/><circle cx="680.88" cy="379.90" r="7.65"/><circle cx="689.65" cy="521.22" r="6.16"/><circle cx="693.26" cy="579.30" r="5.55"/><circle cx="971.93" cy="381.07" r="9.29"/><circle cx="1007.08" cy="339.17" r="9.76"/><circle cx="801.42" cy="584.30" r="7.04"/><circle cx="596.18" cy="678.12" r="5.46"/><circle cx="394.37" cy="628.31" r="7.67"/><circle cx="490.84" cy="652.12" r="6.61"/><circle cx="940.56" cy="803.60" r="7.96"/><circle cx="924.66" cy="796.99" r="7.81"/><circle cx="1204.01" cy="913.14" r="10.41"/><circle cx="540.98" cy="967.33" r="7.69"/><circle cx="577.20" cy="907.74" r="6.94"/><circle cx="648.37" cy="790.61" r="5.48"/><circle cx="686.79" cy="861.47" r="7.12"/><circle cx="665.35" cy="1099.04" r="9.20"/><circle cx="657.50" cy="1185.99" r="9.96"/><circle cx="925.70" cy="959.81" r="8.13"/><circle cx="796.11" cy="812.28" r="6.03"/><circle cx="813.86" cy="832.49" r="6.32"/><circle cx="374.78" cy="774.91" r="8.70"/><circle cx="197.07" cy="813.53" r="10.30"/><circle cx="523.80" cy="742.52" r="7.36"/><circle cx="951.60" cy="593.08" r="7.51"/><circle cx="968.22" cy="585.72" r="7.71"/><circle cx="789.88" cy="664.66" r="5.61"/><circle cx="547.33" cy="434.39" r="8.54"/><circle cx="443.37" cy="252.00" r="10.40"/><circle cx="605.76" cy="536.91" r="7.49"/><circle cx="662.29" cy="361.92" r="8.36"/><circle cx="679.03" cy="509.88" r="6.75"/><circle cx="686.18" cy="573.00" r="6.06"/><circle cx="978.30" cy="405.57" r="9.45"/><circle cx="1012.28" cy="369.01" r="9.90"/><circle cx="803.24" cy="593.97" r="7.14"/><circle cx="371.36" cy="640.14" r="8.36"/><circle cx="587.99" cy="682.11" r="5.96"/><circle cx="476.50" cy="660.51" r="7.19"/><circle cx="927.60" cy="811.98" r="8.09"/><circle cx="910.16" cy="803.67" r="7.91"/><circle cx="1174.03" cy="929.41" r="10.56"/><circle cx="545.85" cy="991.15" r="8.34"/><circle cx="580.19" cy="927.59" r="7.55"/><circle cx="650.03" cy="798.34" r="5.95"/><circle cx="679.63" cy="854.89" r="7.22"/><circle cx="647.76" cy="1079.98" r="9.30"/><circle cx="635.62" cy="1165.69" r="10.09"/><circle cx="808.28" cy="814.33" r="6.53"/><circle cx="953.10" cy="963.25" r="8.81"/><circle cx="826.87" cy="833.44" r="6.82"/><circle cx="383.11" cy="756.40" r="8.81"/><circle cx="529.99" cy="732.19" r="7.43"/><circle cx="213.03" cy="784.43" r="10.40"/><circle cx="793.22" cy="657.46" r="6.05"/><circle cx="978.81" cy="563.80" r="8.33"/><circle cx="959.86" cy="573.36" r="8.09"/><circle cx="475.82" cy="257.82" r="10.51"/><circle cx="617.40" cy="538.36" r="7.57"/><circle cx="567.52" cy="439.52" r="8.60"/><circle cx="641.61" cy="343.67" r="8.99"/><circle cx="667.09" cy="498.25" r="7.27"/><circle cx="678.36" cy="566.64" r="6.51"/><circle cx="982.05" cy="430.71" r="9.54"/><circle cx="1014.47" cy="399.19" r="9.97"/><circle cx="804.08" cy="603.77" r="7.20"/><circle cx="461.74" cy="670.12" r="7.70"/><circle cx="347.44" cy="653.93" r="8.97"/><circle cx="579.44" cy="686.79" r="6.39"/><circle cx="913.76" cy="818.96" r="8.15"/><circle cx="1142.55" cy="942.57" r="10.62"/><circle cx="895.16" cy="808.90" r="7.95"/><circle cx="552.27" cy="1016.11" r="8.90"/><circle cx="584.44" cy="948.59" r="8.08"/><circle cx="652.19" cy="806.43" r="6.35"/><circle cx="673.18" cy="847.61" r="7.25"/><circle cx="615.92" cy="1143.23" r="10.15"/><circle cx="632.15" cy="1059.40" r="9.32"/><circle cx="982.30" cy="965.39" r="9.38"/><circle cx="821.36" cy="815.84" r="6.97"/><circle cx="840.62" cy="833.73" r="7.26"/><circle cx="393.32" cy="738.82" r="8.85"/><circle cx="231.69" cy="757.11" r="10.42"/><circle cx="537.08" cy="722.55" r="7.44"/><circle cx="988.78" cy="539.97" r="8.85"/><circle cx="967.44" cy="552.14" r="8.58"/><circle cx="796.35" cy="649.65" r="6.42"/><circle cx="587.00" cy="446.45" r="8.60"/><circle cx="628.85" cy="540.99" r="7.59"/><circle cx="507.47" cy="266.78" r="10.52"/><circle cx="618.77" cy="325.67" r="9.51"/><circle cx="653.75" cy="486.62" r="7.71"/><circle cx="669.79" cy="560.43" r="6.88"/><circle cx="983.28" cy="456.06" r="9.54"/><circle cx="804.00" cy="613.53" r="7.19"/><circle cx="1013.82" cy="429.23" r="9.94"/><circle cx="570.67" cy="692.24" r="6.76"/><circle cx="323.09" cy="669.90" r="9.47"/><circle cx="446.88" cy="681.07" r="8.11"/><circle cx="899.32" cy="824.51" r="8.14"/><circle cx="1110.16" cy="952.63" r="10.59"/><circle cx="879.92" cy="812.73" r="7.91"/><circle cx="590.22" cy="970.46" r="8.52"/><circle cx="560.53" cy="1041.85" r="9.36"/><circle cx="654.94" cy="814.77" r="6.68"/><circle cx="667.48" cy="839.80" r="7.22"/><circle cx="618.62" cy="1037.74" r="9.27"/><circle cx="598.53" cy="1119.10" r="10.11"/><circle cx="1013.02" cy="965.77" r="9.85"/><circle cx="835.22" cy="816.61" r="7.33"/><circle cx="854.94" cy="833.15" r="7.61"/><circle cx="405.14" cy="722.37" r="8.80"/><circle cx="252.56" cy="731.84" r="10.35"/><circle cx="544.88" cy="713.69" r="7.39"/><circle cx="973.92" cy="529.56" r="8.98"/><circle cx="997.68" cy="514.37" r="9.28"/><circle cx="799.13" cy="641.28" r="6.73"/><circle cx="605.52" cy="454.91" r="8.51"/><circle cx="639.93" cy="544.67" r="7.53"/><circle cx="537.90" cy="278.51" r="10.43"/><circle cx="593.79" cy="308.46" r="9.93"/><circle cx="639.01" cy="475.31" r="8.07"/><circle cx="660.50" cy="554.57" r="7.18"/><circle cx="1010.59" cy="458.69" r="9.83"/><circle cx="982.16" cy="481.22" r="9.45"/><circle cx="803.08" cy="623.12" r="7.11"/><circle cx="298.80" cy="688.17" r="9.87"/><circle cx="561.87" cy="698.53" r="7.04"/><circle cx="432.26" cy="693.43" r="8.44"/><circle cx="884.53" cy="828.67" r="8.05"/><circle cx="864.70" cy="815.21" r="7.80"/><circle cx="1077.42" cy="959.71" r="10.46"/><circle cx="597.73" cy="992.85" r="8.87"/><circle cx="570.90" cy="1067.91" r="9.72"/><circle cx="658.38" cy="823.22" r="6.94"/><circle cx="662.54" cy="831.61" r="7.12"/><circle cx="607.16" cy="1015.42" r="9.11"/><circle cx="583.53" cy="1093.83" r="9.97"/><circle cx="1044.87" cy="963.99" r="10.21"/><circle cx="849.73" cy="816.45" r="7.60"/><circle cx="869.65" cy="831.52" r="7.87"/><circle cx="275.11" cy="708.83" r="10.17"/><circle cx="553.21" cy="705.68" r="7.25"/><circle cx="418.23" cy="707.21" r="8.67"/><circle cx="978.95" cy="505.83" r="9.27"/><circle cx="1005.09" cy="487.19" r="9.61"/><circle cx="801.42" cy="632.40" r="6.96"/><circle cx="622.91" cy="464.64" r="8.33"/><circle cx="650.51" cy="549.25" r="7.39"/><circle cx="566.77" cy="292.56" r="10.24"/></g>
</svg>